<?xml version="1.0" encoding="UTF-8"?>
<svg width="52px" height="52px" viewBox="0 0 52 52" version="1.1" xmlns="http://www.w3.org/2000/svg" xmlns:xlink="http://www.w3.org/1999/xlink">
    <!-- Generator: Sketch 42 (36781) - http://www.bohemiancoding.com/sketch -->
    <title>Peers</title>
    <desc>Created with Sketch.</desc>
    <defs></defs>
    <g id="Symbols" stroke="none" stroke-width="1" fill="none" fill-rule="evenodd" stroke-linecap="round" stroke-linejoin="round">
        <g id="Icons/Peers" transform="translate(-14.000000, -14.000000)" stroke="#333333" stroke-width="2">
            <g id="Peers">
                <g transform="translate(15.000000, 15.000000)">
                    <path d="M4.65816667,24.1666667 L45.3415,24.1666667 C47.4548333,24.1666667 49.1665,25.865 49.1665,27.9583333 C49.1665,28.2083333 49.1415,28.4566667 49.0915,28.7016667 L45.4698333,46.655 C45.1765,48.115 43.8815,49.1666667 42.3798333,49.1666667 L7.61983333,49.1666667 C6.11816667,49.1666667 4.82483333,48.115 4.52983333,46.655 L0.908166667,28.7016667 C0.858166667,28.4566667 0.833166667,28.2083333 0.833166667,27.9583333 C0.833166667,25.865 2.54483333,24.1666667 4.65816667,24.1666667 Z" id="Stroke-840"></path>
                    <path d="M16.2305,20.5306667 C16.2305,21.1273333 16.7471667,22.6706667 17.7921667,24.1673333 L31.1771667,24.1673333 C32.2221667,22.6706667 32.7371667,21.1273333 32.7371667,20.5306667 C34.1238333,20.5306667 34.8021667,15.8573333 34.8021667,15.159 C34.8021667,14.459 34.4405,12.9256667 33.2471667,12.9256667 C33.9055,12.354 34.8021667,10.8306667 34.8021667,8.89066667 L35.8338333,7.99566667 C35.8338333,4.71233333 32.0505,0.834 25.5155,0.834 C20.8721667,0.834 19.3238333,2.624 19.3238333,2.624 C18.0355,2.624 15.1988333,4.52566667 15.1988333,7.10066667 C15.1988333,9.04066667 15.0621667,12.354 15.7205,12.9256667 C14.5288333,12.9256667 14.1671667,14.459 14.1671667,15.159 C14.1671667,15.8573333 14.8438333,20.5306667 16.2305,20.5306667 Z" id="Stroke-842"></path>
                    <path d="M4.65816667,24.1666667 L45.3415,24.1666667 C47.4548333,24.1666667 49.1665,25.865 49.1665,27.9583333 C49.1665,28.2083333 49.1415,28.4566667 49.0915,28.7016667 L45.4698333,46.655 C45.1765,48.115 43.8815,49.1666667 42.3798333,49.1666667 L7.61983333,49.1666667 C6.11816667,49.1666667 4.82483333,48.115 4.52983333,46.655 L0.908166667,28.7016667 C0.858166667,28.4566667 0.833166667,28.2083333 0.833166667,27.9583333 C0.833166667,25.865 2.54483333,24.1666667 4.65816667,24.1666667 Z" id="Stroke-844"></path>
                    <path d="M28.6491667,37.6961667 C28.6491667,36.8795 29.3908333,36.1978333 30.4108333,35.9611667 C29.6991667,35.1545 28.6575,34.7228333 28.0158333,34.7228333 C26.9691667,34.7228333 26.0408333,35.1795 25.1708333,35.1795 C24.3025,35.1795 23.3741667,34.7228333 22.3275,34.7228333 C21.2808333,34.7228333 19.1675,35.8661667 19.1675,37.9245 C19.1675,39.9845 21.2408333,42.4995 22.6425,42.4995 C24.0458333,42.4995 24.4608333,42.0428333 25.1708333,42.0428333 C25.8825,42.0428333 26.2975,42.4995 27.7008333,42.4995 C28.7525,42.4995 30.1858333,41.0795 30.8341667,39.5011667 C29.6008333,39.3795 28.6491667,38.6211667 28.6491667,37.6961667 Z" id="Stroke-846"></path>
                    <path d="M28.2405,30.8333333 C26.8088333,30.8333333 25.6471667,31.7033333 25.6471667,32.7783333 C27.0805,32.7783333 28.2405,31.9083333 28.2405,30.8333333 Z" id="Stroke-848"></path>
                </g>
            </g>
        </g>
    </g>
</svg>