<?xml version="1.0" encoding="UTF-8"?>
<svg width="58px" height="58px" viewBox="0 0 58 58" version="1.1" xmlns="http://www.w3.org/2000/svg" xmlns:xlink="http://www.w3.org/1999/xlink">
    <!-- Generator: Sketch 42 (36781) - http://www.bohemiancoding.com/sketch -->
    <title>Icons/Flexible Timings</title>
    <desc>Created with Sketch.</desc>
    <defs></defs>
    <g id="Symbols" stroke="none" stroke-width="1" fill="none" fill-rule="evenodd" stroke-linecap="round" stroke-linejoin="round">
        <g id="Icons/Flexible-Timings" transform="translate(-11.000000, -11.000000)" stroke="#333333" stroke-width="2">
            <g transform="translate(12.000000, 12.000000)">
                <path d="M25.1428571,26.1306667 C25.1428571,25.6049524 24.7161905,25.1782857 24.1904762,25.1782857 C23.6647619,25.1782857 23.2380952,25.6049524 23.2380952,26.1306667 C23.2380952,26.656381 23.6647619,27.0830476 24.1904762,27.0830476 C24.7161905,27.0830476 25.1428571,26.656381 25.1428571,26.1306667 Z" id="Stroke-1044"></path>
                <polyline id="Stroke-1046" points="24.1904762 13.7497143 24.1904762 26.1306667 30.8571429 32.7973333"></polyline>
                <polyline id="Stroke-1048" points="9.38571429 39.5773333 6.09809524 48.0344762 12.7609524 42.6306667"></polyline>
                <path d="M16.6068571,2.56285714 C14.9020952,1.24095238 12.7935238,0.416190476 10.4697143,0.416190476 C4.89828571,0.416190476 0.380190476,4.93238095 0.380190476,10.5038095 C0.380190476,12.372381 0.915428571,14.1057143 1.80304762,15.6066667 L16.6068571,2.56285714 Z" id="Stroke-1050"></path>
                <path d="M45.8533333,16.6068571 C47.1752381,14.9020952 48,12.7935238 48,10.4678095 C48,4.89828571 43.4838095,0.380190476 37.912381,0.380190476 C36.0438095,0.380190476 34.3104762,0.915428571 32.8114286,1.80304762 L45.8533333,16.6068571 Z" id="Stroke-1052"></path>
                <path d="M43.0055238,32.8586667 C43.7598095,30.7539048 44.1902857,28.4948571 44.1902857,26.1310476 C44.1902857,15.0853333 35.236,6.13104762 24.1902857,6.13104762 C13.1445714,6.13104762 4.19028571,15.0853333 4.19028571,26.1310476 C4.19028571,37.1767619 13.1445714,46.1310476 24.1902857,46.1310476 C27.2626667,46.1310476 30.163619,45.4167619 32.763619,44.1786667" id="Stroke-1054"></path>
                <path d="M32.7619048,44.1904762 C32.7619048,37.88 37.88,32.7619048 44.1904762,32.7619048 C50.5009524,32.7619048 55.6190476,37.88 55.6190476,44.1904762 C55.6190476,50.5009524 50.5009524,55.6190476 44.1904762,55.6190476 C37.88,55.6190476 32.7619048,50.5009524 32.7619048,44.1904762 Z" id="Stroke-1056"></path>
                <path d="M36.0952381,36.0952381 L52.2857143,52.2857143" id="Stroke-1058"></path>
            </g>
        </g>
    </g>
</svg>