<?xml version="1.0" encoding="UTF-8"?>
<svg width="80px" height="80px" viewBox="0 0 80 80" version="1.1" xmlns="http://www.w3.org/2000/svg" xmlns:xlink="http://www.w3.org/1999/xlink">
    <!-- Generator: Sketch 42 (36781) - http://www.bohemiancoding.com/sketch -->
    <title>Play Icon</title>
    <desc>Created with Sketch.</desc>
    <defs></defs>
    <g id="Symbols" stroke="none" stroke-width="1" fill="none" fill-rule="evenodd">
        <g id="Play-Icon">
            <g>
                <rect id="Rectangle" fill="#FFFFFF" x="0" y="0" width="80" height="80"></rect>
                <path d="M73.1568889,61.6182222 L67.9235556,36.3246667 C67.3462222,33.5344444 65.2268889,31.3826667 62.5804444,30.6322222 L62.5804444,29.2473333 C62.5804444,27.4688889 61.1331111,26.0215556 59.3546667,26.0215556 L53.9782222,26.0215556 C52.1997778,26.0215556 50.7524444,27.4688889 50.7524444,29.2473333 L50.7524444,30.3226667 L50.5406667,30.3226667 C48.9664444,30.3226667 47.5051111,31.1044444 46.632,32.414 C46.1588889,33.1246667 45.3664444,33.5484444 44.5126667,33.5484444 L44.3008889,33.5484444 L44.3008889,32.4731111 C44.3008889,30.6946667 42.8535556,29.2473333 41.0751111,29.2473333 L41.0751111,28.172 L42.1504444,28.172 L42.1504444,26.0215556 L41.0751111,26.0215556 L41.0751111,24.9462222 L42.1504444,24.9462222 L42.1504444,22.7957778 L41.0751111,22.7957778 L41.0751111,21.7204444 L42.1504444,21.7204444 L42.1504444,19.57 L41.0751111,19.57 L41.0751111,6.66666667 L38.9246667,6.66666667 L38.9246667,19.57 L37.8493333,19.57 L37.8493333,21.7204444 L38.9246667,21.7204444 L38.9246667,22.7957778 L37.8493333,22.7957778 L37.8493333,24.9462222 L38.9246667,24.9462222 L38.9246667,26.0215556 L37.8493333,26.0215556 L37.8493333,28.172 L38.9246667,28.172 L38.9246667,29.2473333 C37.1462222,29.2473333 35.6988889,30.6946667 35.6988889,32.4731111 L35.6988889,33.5484444 L35.4871111,33.5484444 C34.6333333,33.5484444 33.842,33.1248889 33.3677778,32.414 C32.4946667,31.1042222 31.0344444,30.3226667 29.4591111,30.3226667 L29.2473333,30.3226667 L29.2473333,29.2473333 C29.2473333,27.4688889 27.8,26.0215556 26.0215556,26.0215556 L20.6451111,26.0215556 C18.8666667,26.0215556 17.4193333,27.4688889 17.4193333,29.2473333 L17.4193333,30.6311111 C14.7731111,31.3815556 12.6537778,33.5333333 12.0762222,36.3235556 L6.84311111,61.6182222 C6.72577778,62.1837778 6.66666667,62.7624444 6.66666667,63.3408889 L6.66666667,64.8302222 C6.66666667,69.5182222 10.4817778,73.3333333 15.17,73.3333333 C16.8537778,73.3333333 18.4851111,72.8397778 19.8871111,71.9053333 L28.7773333,65.9784444 C32.1117778,63.7557778 35.9924444,62.5806667 40,62.5806667 C44.0075556,62.5806667 47.8882222,63.756 51.2235556,65.9784444 L60.2193333,71.9751111 C61.5504444,72.8633333 63.1,73.3331111 64.7011111,73.3331111 L64.8173333,73.3331111 C69.5128889,73.3333333 73.3333333,69.5162222 73.3333333,64.8246667 L73.3333333,63.3375556 C73.3333333,62.7613333 73.2742222,62.1837778 73.1568889,61.6182222 L73.1568889,61.6182222 L73.1568889,61.6182222 Z M53.9786667,28.172 L59.3551111,28.172 C59.9475556,28.172 60.4304444,28.6548889 60.4304444,29.2473333 L60.4304444,30.3226667 L52.9035556,30.3226667 L52.9035556,29.2473333 L52.9033333,29.2473333 C52.9033333,28.6548889 53.3862222,28.172 53.9786667,28.172 L53.9786667,28.172 L53.9786667,28.172 Z M37.8495556,32.4731111 C37.8495556,31.8806667 38.3324444,31.3977778 38.9248889,31.3977778 L41.0753333,31.3977778 C41.6677778,31.3977778 42.1506667,31.8806667 42.1506667,32.4731111 L42.1506667,33.5484444 L37.8495556,33.5484444 L37.8495556,32.4731111 L37.8495556,32.4731111 L37.8495556,32.4731111 Z M19.57,29.2473333 C19.57,28.6548889 20.0528889,28.172 20.6453333,28.172 L26.0217778,28.172 C26.6142222,28.172 27.0971111,28.6548889 27.0971111,29.2473333 L27.0971111,30.3226667 L19.57,30.3226667 L19.57,29.2473333 L19.57,29.2473333 L19.57,29.2473333 Z M18.4944444,70.2288889 C17.4922222,70.846 16.3513333,71.1826667 15.1697778,71.1826667 C11.6666667,71.1828889 8.81711111,68.3333333 8.81711111,64.83 L8.81711111,63.3406667 C8.81711111,62.9095556 8.86111111,62.4762222 8.94933333,62.0535556 L11.2633333,50.8717778 C15.3546667,51.532 18.4944444,55.0782222 18.4944444,59.3546667 L18.4944444,70.2288889 L18.4944444,70.2288889 L18.4944444,70.2288889 Z M59.3544444,59.3546667 L59.3544444,68.8148889 L52.4157778,64.1891111 C48.7268889,61.73 44.4344444,60.43 40,60.43 C35.5655556,60.43 31.2731111,61.73 27.5837778,64.1891111 L20.6451111,68.8148889 L20.6451111,59.3546667 C20.6451111,54.0417778 16.7686667,49.6288889 11.6988889,48.7653333 L14.1826667,36.7588889 C14.6955556,34.276 16.9095556,32.4728889 19.4471111,32.4728889 L29.2471111,32.4728889 L29.4588889,32.4728889 C30.3126667,32.4728889 31.104,32.8964444 31.5782222,33.6073333 C32.4513333,34.9171111 33.9115556,35.6986667 35.4868889,35.6986667 L35.6986667,35.6986667 L44.3008889,35.6986667 L44.5126667,35.6986667 C46.0868889,35.6986667 47.5482222,34.9168889 48.4213333,33.6073333 C48.8944444,32.8966667 49.6868889,32.4728889 50.5406667,32.4728889 L50.7524444,32.4728889 L60.5524444,32.4728889 C63.0891111,32.4728889 65.3028889,34.2762222 65.8168889,36.76 L68.3006667,48.7664444 C63.2306667,49.6288889 59.3544444,54.0417778 59.3544444,59.3546667 L59.3544444,59.3546667 L59.3544444,59.3546667 Z M64.8173333,71.1826667 L64.7011111,71.1826667 C63.5624444,71.1826667 62.4624444,70.8526667 61.5053333,70.2395556 L61.5053333,59.3546667 C61.5053333,55.0782222 64.6451111,51.532 68.7375556,50.8717778 L71.0515556,62.0535556 C71.1386667,62.4762222 71.1826667,62.9073333 71.1826667,63.3373333 L71.1826667,64.8246667 L71.1828889,64.8246667 C71.1828889,68.33 68.3268889,71.1826667 64.8173333,71.1826667 L64.8173333,71.1826667 Z M28.172,41.0753333 C28.172,37.5173333 25.2784444,34.6237778 21.7204444,34.6237778 C18.1624444,34.6237778 15.2688889,37.5171111 15.2688889,41.0753333 C15.2688889,44.6335556 18.1624444,47.5268889 21.7204444,47.5268889 C25.2784444,47.5268889 28.172,44.6333333 28.172,41.0753333 L28.172,41.0753333 Z M21.7204444,45.3764444 C19.3484444,45.3764444 17.4193333,43.4473333 17.4193333,41.0753333 C17.4193333,38.7033333 19.3484444,36.7742222 21.7204444,36.7742222 C24.0924444,36.7742222 26.0215556,38.7033333 26.0215556,41.0753333 C26.0215556,43.4473333 24.0924444,45.3764444 21.7204444,45.3764444 L21.7204444,45.3764444 Z M30.3226667,47.5268889 C26.7646667,47.5268889 23.8711111,50.4204444 23.8711111,53.9784444 C23.8711111,57.5364444 26.7646667,60.43 30.3226667,60.43 C33.8806667,60.43 36.7742222,57.5364444 36.7742222,53.9784444 C36.7742222,50.4204444 33.8806667,47.5268889 30.3226667,47.5268889 L30.3226667,47.5268889 Z M34.4655556,52.8871111 C32.8151111,52.8053333 31.4946667,51.486 31.4128889,49.8344444 C32.9042222,50.2291111 34.072,51.3966667 34.4655556,52.8871111 L34.4655556,52.8871111 Z M29.2311111,49.8355556 C29.1493333,51.486 27.83,52.8064444 26.1784444,52.8882222 C26.5731111,51.3966667 27.7408889,50.2291111 29.2311111,49.8355556 L29.2311111,49.8355556 Z M26.1795556,55.07 C27.83,55.1517778 29.1504444,56.4711111 29.2322222,58.1226667 C27.7408889,57.728 26.5731111,56.5602222 26.1795556,55.07 L26.1795556,55.07 Z M30.3226667,55.0871111 C30.0086667,54.6644444 29.6366667,54.2924444 29.214,53.9784444 C29.6366667,53.6644444 30.0086667,53.2924444 30.3226667,52.8697778 C30.6366667,53.2924444 31.0086667,53.6644444 31.4313333,53.9784444 C31.0086667,54.2924444 30.6366667,54.6644444 30.3226667,55.0871111 L30.3226667,55.0871111 Z M31.414,58.1215556 C31.4957778,56.4711111 32.8151111,55.1506667 34.4666667,55.0688889 C34.072,56.5602222 32.9042222,57.728 31.414,58.1215556 L31.414,58.1215556 Z M49.6773333,47.5268889 C46.1193333,47.5268889 43.2257778,50.4204444 43.2257778,53.9784444 C43.2257778,57.5364444 46.1193333,60.43 49.6773333,60.43 C53.2353333,60.43 56.1288889,57.5364444 56.1288889,53.9784444 C56.1288889,50.4204444 53.2355556,47.5268889 49.6773333,47.5268889 L49.6773333,47.5268889 Z M49.6773333,58.2795556 C47.3053333,58.2795556 45.3762222,56.3504444 45.3762222,53.9784444 C45.3762222,51.6064444 47.3053333,49.6773333 49.6773333,49.6773333 C52.0493333,49.6773333 53.9784444,51.6064444 53.9784444,53.9784444 C53.9784444,56.3504444 52.0495556,58.2795556 49.6773333,58.2795556 L49.6773333,58.2795556 Z M53.4408889,44.8386667 C54.9226667,44.8386667 56.1291111,43.6322222 56.1291111,42.1504444 C56.1291111,40.6686667 54.9226667,39.4622222 53.4408889,39.4622222 C51.9591111,39.4622222 50.7526667,40.6686667 50.7526667,42.1504444 C50.7526667,43.6322222 51.9591111,44.8386667 53.4408889,44.8386667 L53.4408889,44.8386667 Z M53.4408889,41.6128889 C53.7375556,41.6128889 53.9784444,41.8537778 53.9784444,42.1504444 C53.9784444,42.4471111 53.7375556,42.688 53.4408889,42.688 C53.1442222,42.688 52.9033333,42.4471111 52.9033333,42.1504444 C52.9033333,41.8537778 53.144,41.6128889 53.4408889,41.6128889 L53.4408889,41.6128889 Z M65.8064444,42.1504444 C65.8064444,40.6686667 64.6,39.4622222 63.1182222,39.4622222 C61.6364444,39.4622222 60.43,40.6686667 60.43,42.1504444 C60.43,43.6322222 61.6366667,44.8386667 63.1182222,44.8386667 C64.6,44.8386667 65.8064444,43.6322222 65.8064444,42.1504444 L65.8064444,42.1504444 Z M62.5806667,42.1504444 C62.5806667,41.8537778 62.8215556,41.6128889 63.1182222,41.6128889 C63.4148889,41.6128889 63.6557778,41.8537778 63.6557778,42.1504444 C63.6557778,42.4471111 63.4148889,42.688 63.1182222,42.688 C62.8215556,42.688 62.5806667,42.4471111 62.5806667,42.1504444 L62.5806667,42.1504444 Z M58.2795556,44.3011111 C56.7977778,44.3011111 55.5913333,45.5075556 55.5913333,46.9893333 C55.5913333,48.4711111 56.7977778,49.6775556 58.2795556,49.6775556 C59.7613333,49.6773333 60.9677778,48.4708889 60.9677778,46.9893333 C60.9677778,45.5075556 59.7613333,44.3011111 58.2795556,44.3011111 L58.2795556,44.3011111 Z M58.2795556,47.5268889 C57.9828889,47.5268889 57.742,47.286 57.742,46.9893333 C57.742,46.6926667 57.9828889,46.4517778 58.2795556,46.4517778 C58.5762222,46.4517778 58.8171111,46.6926667 58.8171111,46.9893333 C58.8171111,47.286 58.5762222,47.5268889 58.2795556,47.5268889 L58.2795556,47.5268889 Z M58.2795556,40 C59.7613333,40 60.9677778,38.7935556 60.9677778,37.3117778 C60.9677778,35.83 59.7613333,34.6235556 58.2795556,34.6235556 C56.7977778,34.6235556 55.5913333,35.83 55.5913333,37.3117778 C55.5913333,38.7935556 56.7977778,40 58.2795556,40 L58.2795556,40 Z M58.2795556,36.7742222 C58.5762222,36.7742222 58.8171111,37.0151111 58.8171111,37.3117778 C58.8171111,37.6084444 58.5762222,37.8493333 58.2795556,37.8493333 C57.9828889,37.8493333 57.742,37.6084444 57.742,37.3117778 C57.742,37.0151111 57.9828889,36.7742222 58.2795556,36.7742222 L58.2795556,36.7742222 Z" fill="#333333"></path>
            </g>
        </g>
    </g>
</svg>