<?xml version="1.0" encoding="UTF-8"?>
<svg width="52px" height="51px" viewBox="0 0 52 51" version="1.1" xmlns="http://www.w3.org/2000/svg" xmlns:xlink="http://www.w3.org/1999/xlink">
    <!-- Generator: Sketch 42 (36781) - http://www.bohemiancoding.com/sketch -->
    <title>Salary Icon</title>
    <desc>Created with Sketch.</desc>
    <defs></defs>
    <g id="Symbols" stroke="none" stroke-width="1" fill="none" fill-rule="evenodd" stroke-linecap="round" stroke-linejoin="round">
        <g id="Icons/Salary" transform="translate(-14.000000, -15.000000)" stroke="#303B42" stroke-width="2">
            <g id="Salary-Icon">
                <g transform="translate(15.000000, 15.000000)">
                    <path d="M25.9615385,14 L37.5,14" id="Stroke-42"></path>
                    <path d="M25.9615385,22 L37.5,22" id="Stroke-43"></path>
                    <path d="M20.1773077,29.8226923 L29.7965385,29.7976923" id="Stroke-44"></path>
                    <path d="M18.2692308,12.5 L15.3846154,12.5 C13.7903846,12.5 12.5,13.5769231 12.5,14.9038462 C12.5,16.2307692 13.7903846,17.3076923 15.3846154,17.3076923 C16.9788462,17.3076923 18.2692308,18.3846154 18.2692308,19.7115385 C18.2692308,21.0384615 16.9788462,22.1153846 15.3846154,22.1153846 L12.5,22.1153846" id="Stroke-45"></path>
                    <path d="M15,12.5 L15,10.5769231" id="Stroke-47"></path>
                    <path d="M15,22.1153846 L15,24.0384615" id="Stroke-49"></path>
                    <path d="M0.961538462,18.2692308 L0.961538462,46.1538462 C0.961538462,47.7480769 2.25192308,49.0384615 3.84615385,49.0384615 L46.1538462,49.0384615 C47.7480769,49.0384615 49.0384615,47.7480769 49.0384615,46.1538462 L49.0384615,18.2692308" id="Stroke-51"></path>
                    <path d="M31.2151923,4.80769231 L27.4344231,1.95192308 C26.7786538,1.37307692 25.9498077,0.961538462 24.9998077,0.961538462 C24.0498077,0.961538462 23.2209615,1.37307692 22.5651923,1.95192308 L18.7844231,4.80769231" id="Stroke-53"></path>
                    <path d="M6.73076923,13.9123077 L0.961538462,18.27 L22.5653846,36.5084615 C23.2211538,37.0892308 24.05,37.5007692 25,37.5007692 C25.95,37.5007692 26.8173077,37.0892308 27.4711538,36.5084615 L49.0384615,18.27 L43.2692308,13.9123077" id="Stroke-55"></path>
                    <path d="M6.73076923,23.1482692 L6.73076923,7.6925 C6.73076923,6.09826923 8.02115385,4.80788462 9.61538462,4.80788462 L40.3846154,4.80788462 C41.9788462,4.80788462 43.2692308,6.09826923 43.2692308,7.6925 L43.2692308,23.1482692" id="Stroke-57"></path>
                </g>
            </g>
        </g>
    </g>
</svg>