<?xml version="1.0" encoding="UTF-8"?>
<svg width="52px" height="52px" viewBox="0 0 52 52" version="1.1" xmlns="http://www.w3.org/2000/svg" xmlns:xlink="http://www.w3.org/1999/xlink">
    <!-- Generator: Sketch 42 (36781) - http://www.bohemiancoding.com/sketch -->
    <title>Transparent Icon</title>
    <desc>Created with Sketch.</desc>
    <defs></defs>
    <g id="Symbols" stroke="none" stroke-width="1" fill="none" fill-rule="evenodd" stroke-linecap="round" stroke-linejoin="round">
        <g id="Icons/Transparency" transform="translate(-14.000000, -14.000000)" stroke="#333333" stroke-width="2">
            <g id="Transparent-Icon">
                <g transform="translate(15.000000, 15.000000)">
                    <path d="M46.8832891,35.9416446 L3.11671088,35.9416446 C1.46750663,35.9416446 0.132625995,34.6067639 0.132625995,32.9575597 L0.132625995,0.132625995 L49.867374,0.132625995 L49.867374,32.9575597 C49.867374,34.6067639 48.5324934,35.9416446 46.8832891,35.9416446 Z" id="Stroke-69"></path>
                    <path d="M25.994695,48.872679 C25.994695,49.4217507 25.5490716,49.867374 25,49.867374 C24.4509284,49.867374 24.005305,49.4217507 24.005305,48.872679 C24.005305,48.3236074 24.4509284,47.8779841 25,47.8779841 C25.5490716,47.8779841 25.994695,48.3236074 25.994695,48.872679 Z" id="Stroke-71"></path>
                    <path d="M25,48.872679 L25,35.9416446" id="Stroke-73"></path>
                    <polygon id="Stroke-75" points="8.09018568 29.9734748 14.0583554 29.9734748 14.0583554 18.0371353 8.09018568 18.0371353"></polygon>
                    <polygon id="Stroke-77" points="22.0159151 29.9734748 27.9840849 29.9734748 27.9840849 12.0689655 22.0159151 12.0689655"></polygon>
                    <polygon id="Stroke-78" points="41.9098143 6.10079576 36.0769231 6.12466844 35.9416446 29.9734748 41.9098143 29.9734748"></polygon>
                </g>
            </g>
        </g>
    </g>
</svg>