<?xml version="1.0" encoding="UTF-8"?>
<svg width="80px" height="80px" viewBox="0 0 80 80" version="1.1" xmlns="http://www.w3.org/2000/svg" xmlns:xlink="http://www.w3.org/1999/xlink">
    <!-- Generator: Sketch 42 (36781) - http://www.bohemiancoding.com/sketch -->
    <title>Build Icon</title>
    <desc>Created with Sketch.</desc>
    <defs></defs>
    <g id="Symbols" stroke="none" stroke-width="1" fill="none" fill-rule="evenodd">
        <g id="Build-Icon">
            <g>
                <rect id="Rectangle" fill="#FFFFFF" x="0" y="0" width="80" height="80"></rect>
                <path d="M70.2391111,59.8148889 L67.3788889,60.5302222 L63.1704444,51.272 L61.8551111,39.4328889 L63.8022222,39.7111111 C63.9313333,39.7302222 64.0604444,39.7386667 64.1873333,39.7386667 C65.3355556,39.7386667 66.3777778,39.0064444 66.7502222,37.8888889 C67.0042222,37.126 66.908,36.2953333 66.4846667,35.6115556 C66.0624444,34.928 65.3628889,34.4697778 64.5671111,34.3564444 L62.1375556,34.0093333 L62.1375556,12.4022222 C62.1375556,9.48466667 59.764,7.11111111 56.8464444,7.11111111 L12.402,7.11111111 C9.48466667,7.11111111 7.11111111,9.48466667 7.11111111,12.4022222 C7.11111111,14.9566667 8.93222222,17.0942222 11.344,17.5864444 L11.344,72.7197778 L53.6297778,72.7197778 L53.7133333,73.0108889 L55.7482222,72.4288889 L53.9324444,66.0733333 L54.5251111,65.9251111 L68.27,62.4891111 L68.8508889,62.3442222 L70.6573333,67.7642222 L72.6646667,67.0944444 L70.2391111,59.8148889 L70.2391111,59.8148889 L70.2391111,59.8148889 Z M62.0751111,36.1386667 L64.2686667,36.452 C64.5046667,36.4846667 64.6306667,36.636 64.6846667,36.7237778 C64.7386667,36.8115556 64.818,36.9926667 64.7428889,37.2191111 C64.6528889,37.4888889 64.3777778,37.6477778 64.1026667,37.616 L61.8782222,37.2984444 L62.0751111,36.1386667 L62.0751111,36.1386667 L62.0751111,36.1386667 Z M56.8464444,9.22733333 C58.5966667,9.22733333 60.0211111,10.6517778 60.0211111,12.4022222 L60.0211111,31.2826667 L57.9046667,30.0477778 L57.9046667,15.5766667 L56.8464444,15.5766667 C55.0962222,15.5766667 53.6717778,14.1522222 53.6717778,12.402 C53.6717778,10.6517778 55.0962222,9.22733333 56.8464444,9.22733333 L56.8464444,9.22733333 L56.8464444,9.22733333 Z M46.0357778,35.0348889 L40.9395556,34.3068889 L40.4717778,33.3724444 C40.4115556,33.2517778 40.3448889,33.1353333 40.2728889,33.0242222 L45.2962222,33.7417778 L45.2962222,33.7428889 L59.1744444,35.7228889 L59.9786667,35.8382222 L59.7817778,36.998 L56.5024444,36.5302222 L46.0357778,35.0348889 L46.0357778,35.0348889 L46.0357778,35.0348889 Z M48.1195556,38.6804444 L46.1651111,40.6348889 L42.8666667,38.1608889 L42.0911111,36.6084444 L47.3662222,37.3617778 L48.1195556,38.6804444 L48.1195556,38.6804444 L48.1195556,38.6804444 Z M36.4233333,30.4402222 L33.016,31.5766667 C32.8508889,31.6 32.6837778,31.618 32.5206667,31.6464444 C32.5175556,31.5808889 32.508,31.5162222 32.508,31.4495556 C32.508,29.1902222 33.3026667,27.114 34.6222222,25.4791111 C35.5215556,26.5915556 36.1755556,27.9142222 36.5015556,29.3777778 C36.4984444,29.3884444 36.492,29.3977778 36.49,29.4084444 C36.4042222,29.7513333 36.3957778,30.0973333 36.4233333,30.4402222 L36.4233333,30.4402222 L36.4233333,30.4402222 Z M33.914,35.3564444 L34.078,36.6728889 C33.4853333,35.7775556 33.0515556,34.7904444 32.7933333,33.7448889 C32.9406667,33.7164444 33.092,33.7015556 33.2411111,33.6793333 L33.9468889,34.3851111 C33.896,34.7046667 33.8728889,35.0295556 33.914,35.3564444 L33.914,35.3564444 L33.914,35.3564444 Z M33.1195556,38.9144444 C31.4517778,40.2362222 29.384,40.9737778 27.2168889,40.9737778 C26.5904444,40.9737778 25.9788889,40.9093333 25.3862222,40.7928889 C26.092,37.9153333 28.0897778,35.5555556 30.7766667,34.38 C31.2084444,36.0455556 32.0031111,37.5906667 33.1195556,38.9144444 L33.1195556,38.9144444 L33.1195556,38.9144444 Z M30.4357778,32.2264444 C26.9342222,33.562 24.3013333,36.5122222 23.3648889,40.1513333 C20.0284444,38.6688889 17.6928889,35.3291111 17.6928889,31.4497778 C17.6928889,26.1988889 21.966,21.926 27.2166667,21.926 C29.422,21.926 31.4768889,22.6922222 33.1128889,23.9842222 C31.4168889,26.0064444 30.3913333,28.6095556 30.3913333,31.4497778 C30.3913333,31.7111111 30.4188889,31.9682222 30.4357778,32.2264444 L30.4357778,32.2264444 L30.4357778,32.2264444 Z M25.11,42.8888889 C25.7946667,43.0148889 26.4962222,43.09 27.2168889,43.09 C29.9206667,43.09 32.4942222,42.146 34.5533333,40.4688889 L34.6782222,41.4657778 L42.1311111,48.9155556 C40.3288889,51.2382222 37.5882222,52.614 34.6242222,52.614 C29.3733333,52.614 25.1004444,48.3408889 25.1004444,43.0902222 C25.1004444,43.0222222 25.1088889,42.9566667 25.11,42.8888889 L25.11,42.8888889 L25.11,42.8888889 Z M36.1351111,23.9853333 C37.7595556,22.6995556 39.8048889,21.926 42.0313333,21.926 C44.5668889,21.926 46.9402222,22.9577778 48.6864444,24.6708889 L47.4273333,23.9364444 L38.4982222,27.1831111 C38.3617778,27.2328889 38.2422222,27.3122222 38.1151111,27.3788889 C37.6473333,26.126 36.9722222,24.9831111 36.1351111,23.9853333 L36.1351111,23.9853333 L36.1351111,23.9853333 Z M38.544,29.9235556 C38.6317778,29.5711111 38.8804444,29.2982222 39.2244444,29.1733333 L47.2213333,26.2653333 L59.0284444,33.1533333 L59.0751111,33.5713333 L53.8148889,32.82 L46.6213333,31.7924444 L45.7611111,30.2844444 L41.288,31.0304444 L38.6075556,30.6473333 C38.5048889,30.4251111 38.4806667,30.1733333 38.544,29.9235556 L38.544,29.9235556 L38.544,29.9235556 Z M9.22733333,12.4022222 C9.22733333,10.652 10.6517778,9.22755556 12.402,9.22755556 L52.6411111,9.22755556 C51.9691111,10.1142222 51.5553333,11.2064444 51.5553333,12.4022222 C51.5553333,13.598 51.9691111,14.69 52.6411111,15.5768889 L12.402,15.5768889 C10.6517778,15.5766667 9.22733333,14.1524444 9.22733333,12.4022222 L9.22733333,12.4022222 L9.22733333,12.4022222 Z M51.2951111,64.5513333 L53.0253333,70.6031111 L13.4602222,70.6031111 L13.4602222,17.6931111 L55.7882222,17.6931111 L55.7882222,28.8137778 L52.7955556,27.0677778 C51.02,22.7133333 46.7488889,19.8095556 42.0315556,19.8095556 C39.22,19.8095556 36.6388889,20.8117778 34.6242222,22.4773333 C32.5955556,20.8022222 30.002,19.8095556 27.2168889,19.8095556 C20.7988889,19.8095556 15.5766667,25.0317778 15.5766667,31.4497778 C15.5766667,36.3873333 18.6728889,40.6064444 23.0211111,42.2953333 C23.0042222,42.5588889 22.984,42.8222222 22.984,43.09 C22.984,49.508 28.2062222,54.7302222 34.6242222,54.7302222 C38.1586667,54.7302222 41.44,53.1375556 43.6411111,50.4244444 L44.5173333,51.3006667 L51.7024444,57.4593333 L53.8537778,63.9111111 L51.2951111,64.5513333 L51.2951111,64.5513333 L51.2951111,64.5513333 Z M60.7671111,62.1828889 L55.912,63.3966667 L53.5246667,56.2337778 L45.9542222,49.7491111 L36.6875556,40.4824444 L36.0135556,35.094 C35.9913333,34.914 36.0071111,34.7373333 36.0526667,34.5702222 L36.1024444,34.4411111 C36.2051111,34.1766667 36.3786667,33.9595556 36.5966667,33.8073333 C37.148,33.4495556 37.9468889,33.5544444 38.3882222,34.0402222 C38.4602222,34.1237778 38.5268889,34.2137778 38.5775556,34.3164444 L39.5415556,36.2433333 L41.1955556,39.5522222 L46.3626667,43.4273333 L50.7573333,39.0326667 L50.0186667,37.7406667 L59.6895556,39.1226667 L61.0842222,51.6717778 L65.2908889,61.0517778 L60.7671111,62.1828889 L60.7671111,62.1828889 L60.7671111,62.1828889 Z" fill="#333333"></path>
            </g>
        </g>
    </g>
</svg>