<?xml version="1.0" encoding="UTF-8"?>
<svg width="80px" height="80px" viewBox="0 0 80 80" version="1.1" xmlns="http://www.w3.org/2000/svg" xmlns:xlink="http://www.w3.org/1999/xlink">
    <!-- Generator: Sketch 42 (36781) - http://www.bohemiancoding.com/sketch -->
    <title>Learn Icon</title>
    <desc>Created with Sketch.</desc>
    <defs></defs>
    <g id="Symbols" stroke="none" stroke-width="1" fill="none" fill-rule="evenodd">
        <g id="Learn-Icon">
            <g>
                <rect id="Rectangle" fill="#FFFFFF" x="0" y="0" width="80" height="80"></rect>
                <path d="M68.8191111,7.13111111 L62.6677778,11.7355556 L56.4815556,26.1588889 L51.5068889,26.1588889 L49.5535556,21.926 L50.8297778,21.926 C53.1642222,21.926 55.0626667,20.0477778 55.0626667,17.7133333 L55.0626667,13.4602222 L57.1791111,13.4602222 L57.1791111,7.11111111 L50.8297778,7.11111111 L50.8297778,13.4602222 L52.9462222,13.4602222 L52.9462222,17.7133333 C52.9462222,18.8795556 51.9971111,19.8095556 50.8297778,19.8095556 L48.5768889,19.8095556 L45.872,13.9577778 L49.1122222,12.3428889 L38.5026667,7.79888889 L36.0084444,16.528 C35.9406667,11.3344444 31.7004444,7.13022222 26.4908889,7.13022222 C21.2391111,7.13022222 16.9671111,11.4022222 16.9671111,16.654 C16.9671111,19.8275556 18.5744444,22.8042222 21.2,24.564 L21.2,26.1586667 L18.6371111,26.1586667 L18.472,27.0264444 C17.9577778,29.6942222 17.91,32.436 18.3302222,35.1704444 L11.1111111,48.0382222 L19.0835556,49.8593333 L19.0835556,63.1957778 L29.6655556,63.1957778 L29.6655556,72.7195556 L55.0624444,72.7195556 L55.0624444,57.9735556 C62.4697778,52.7333333 66.7004444,44.308 66.6942222,35.3195556 L66.6964444,31.4593333 C66.6964444,30.0042222 66.562,28.5091111 66.2911111,27.036 L66.1344444,26.1586667 L64.0571111,26.1586667 L68.8191111,14.7502222 L68.8191111,7.13111111 L68.8191111,7.13111111 L68.8191111,7.13111111 Z M52.946,11.364 L52.946,9.24755556 L55.0624444,9.24755556 L55.0624444,11.364 L52.946,11.364 L52.946,11.364 L52.946,11.364 Z M49.1757778,26.1586667 L45.162,26.1586667 L43.2382222,21.9257778 L47.2224444,21.9257778 L49.1757778,26.1586667 L49.1757778,26.1586667 L49.1757778,26.1586667 Z M39.8762222,10.6931111 L44.0826667,12.4953333 L43.09,12.982 L46.2455556,19.8095556 L42.2762222,19.8095556 L39.6973333,14.1493333 L38.7502222,14.6275556 L39.8762222,10.6931111 L39.8762222,10.6931111 L39.8762222,10.6931111 Z M42.8371111,26.1588889 L38.1313333,26.1588889 L38.1313333,24.0626667 C38.1313333,22.8955556 39.0804444,21.9262222 40.2477778,21.9262222 L40.9133333,21.9262222 L40.9133333,21.926 L42.8371111,26.1588889 L42.8371111,26.1588889 L42.8371111,26.1588889 Z M38.6815556,17.0337778 L39.9651111,19.8582222 C37.764,20.0064444 36.0148889,21.8244444 36.0148889,24.0624444 L36.0148889,26.1586667 L31.782,26.1586667 L31.782,24.564 C33.8995556,23.1448889 35.3364444,20.9302222 35.8211111,18.4635556 L38.6815556,17.0337778 L38.6815556,17.0337778 L38.6815556,17.0337778 Z M19.0837778,16.6551111 C19.0837778,12.5715556 22.4075556,9.24777778 26.4911111,9.24777778 C30.5746667,9.24777778 33.8984444,12.5715556 33.8984444,16.6551111 C33.8984444,19.2837778 32.4784444,21.7397778 30.1937778,23.0635556 L29.6657778,23.3682222 L29.6657778,26.1586667 L27.5493333,26.1586667 L27.5493333,19.6337778 C28.778,19.1957778 29.6657778,18.0315556 29.6657778,16.6537778 C29.6657778,14.9035556 28.2413333,13.4791111 26.4911111,13.4791111 C24.7408889,13.4791111 23.3164444,14.9037778 23.3164444,16.654 C23.3164444,18.0317778 24.2042222,19.1957778 25.4328889,19.634 L25.4328889,26.1588889 L23.3164444,26.1588889 L23.3164444,23.3682222 L22.7884444,23.0624444 C20.5037778,21.7386667 19.0837778,19.2835556 19.0837778,16.6551111 L19.0837778,16.6551111 L19.0837778,16.6551111 Z M26.4911111,17.7133333 C25.9068889,17.7133333 25.4328889,17.238 25.4328889,16.6551111 C25.4328889,16.0708889 25.9068889,15.5968889 26.4911111,15.5968889 C27.0753333,15.5968889 27.5493333,16.0708889 27.5493333,16.6551111 C27.5493333,17.2393333 27.0753333,17.7133333 26.4911111,17.7133333 L26.4911111,17.7133333 L26.4911111,17.7133333 Z M64.3533333,28.2753333 C64.5068889,29.3333333 64.5842222,30.4064444 64.5842222,31.4497778 L64.5864444,35.3175556 C64.5928889,43.7948889 60.4097778,51.7333333 53.4117778,56.5513333 L52.9462222,56.8688889 L52.9462222,70.6033333 L31.7822222,70.6033333 L31.7822222,61.0795556 L21.2,61.0795556 L21.2,48.1715556 L14.3417778,46.6064444 L20.5364444,35.562 L20.4762222,35.1842222 C20.0826667,32.8688889 20.0604444,30.3915556 20.4022222,28.2753333 L21.2,28.2753333 L31.782,28.2753333 L64.3533333,28.2753333 L64.3533333,28.2753333 L64.3533333,28.2753333 Z M61.764,26.1586667 L58.7831111,26.1586667 L64.0582222,13.8602222 L66.4042222,15.0284444 L61.764,26.1586667 L61.764,26.1586667 L61.764,26.1586667 Z M66.7026667,12.8253333 L65.5322222,12.2402222 L66.7026667,11.364 L66.7026667,12.8253333 L66.7026667,12.8253333 Z M28.6075556,34.6244444 C26.8573333,34.6244444 25.4328889,33.5662222 25.4328889,31.4497778 L23.3164444,31.4497778 C23.3164444,34.6244444 25.69,36.7408889 28.6075556,36.7408889 C31.5251111,36.7408889 33.8986667,34.6244444 33.8986667,31.4497778 L31.7822222,31.4497778 C31.782,33.5662222 30.3577778,34.6244444 28.6075556,34.6244444 L28.6075556,34.6244444 Z" id="Learn" fill="#333333"></path>
            </g>
        </g>
    </g>
</svg>