<?xml version="1.0" encoding="UTF-8"?>
<svg width="52px" height="45px" viewBox="0 0 52 45" version="1.1" xmlns="http://www.w3.org/2000/svg" xmlns:xlink="http://www.w3.org/1999/xlink">
    <!-- Generator: Sketch 42 (36781) - http://www.bohemiancoding.com/sketch -->
    <title>Outcome icon</title>
    <desc>Created with Sketch.</desc>
    <defs></defs>
    <g id="Symbols" stroke="none" stroke-width="1" fill="none" fill-rule="evenodd" stroke-linecap="round" stroke-linejoin="round">
        <g id="Icons/Outcome" transform="translate(-14.000000, -17.000000)" stroke="#303B42" stroke-width="2">
            <g id="Outcome-icon">
                <g transform="translate(15.000000, 18.000000)">
                    <path d="M32.5,8.33333333 C32.5,12.475 29.1416667,15.8333333 25,15.8333333 C20.8583333,15.8333333 17.5,12.475 17.5,8.33333333 C17.5,4.19166667 20.8583333,0.833333333 25,0.833333333 C29.1416667,0.833333333 32.5,4.19166667 32.5,8.33333333 Z" id="Stroke-1600"></path>
                    <path d="M15.8333333,35 C15.8333333,39.1416667 12.475,42.5 8.33333333,42.5 C4.19166667,42.5 0.833333333,39.1416667 0.833333333,35 C0.833333333,30.8583333 4.19166667,27.5 8.33333333,27.5 C12.475,27.5 15.8333333,30.8583333 15.8333333,35 Z" id="Stroke-1602"></path>
                    <path d="M49.1666667,35 C49.1666667,39.1416667 45.8083333,42.5 41.6666667,42.5 C37.525,42.5 34.1666667,39.1416667 34.1666667,35 C34.1666667,30.8583333 37.525,27.5 41.6666667,27.5 C45.8083333,27.5 49.1666667,30.8583333 49.1666667,35 Z" id="Stroke-1604"></path>
                    <path d="M8.33333333,27.5 L8.33333333,24.1666667 C8.33333333,22.7866667 9.45333333,21.6666667 10.8333333,21.6666667 L39.1666667,21.6666667 C40.5466667,21.6666667 41.6666667,22.7866667 41.6666667,24.1666667 L41.6666667,27.5" id="Stroke-1606"></path>
                    <path d="M25,15.8333333 L25,21.6666667" id="Stroke-1608"></path>
                </g>
            </g>
        </g>
    </g>
</svg>