<?xml version="1.0" encoding="UTF-8"?>
<svg width="100px" height="83px" viewBox="0 0 100 83" version="1.1" xmlns="http://www.w3.org/2000/svg" xmlns:xlink="http://www.w3.org/1999/xlink">
    <!-- Generator: Sketch 42 (36781) - http://www.bohemiancoding.com/sketch -->
    <title>home-services-tech</title>
    <desc>Created with Sketch.</desc>
    <defs></defs>
    <g id="Home" stroke="none" stroke-width="1" fill="none" fill-rule="evenodd">
        <g id="Icons" transform="translate(-194.000000, -114.000000)" fill="#3F3F3F">
            <path d="M287.548256,114 L200.451744,114 C196.893598,114 194,116.893598 194,120.451744 L194,178.516424 C194,182.07457 196.893598,184.968168 200.451744,184.968168 L229.483915,184.968168 L229.483915,193.032848 L218.193701,193.032848 L218.193701,196.25872 L229.483915,196.25872 L258.516085,196.25872 L269.806299,196.25872 L269.806299,193.032848 L258.516085,193.032848 L258.516085,184.968168 L287.548256,184.968168 C291.106402,184.968168 294,182.07457 294,178.516424 L294,120.451744 C294,116.893598 291.106402,114 287.548256,114 L287.548256,114 L287.548256,114 Z M255.290213,193.032509 L232.709448,193.032509 L232.709448,184.967829 L255.290213,184.967829 L255.290213,193.032509 L255.290213,193.032509 L255.290213,193.032509 Z M290.774128,178.516424 C290.774128,180.295328 289.327498,181.742296 287.548256,181.742296 L258.516085,181.742296 L229.483915,181.742296 L200.451744,181.742296 C198.67284,181.742296 197.225872,180.295667 197.225872,178.516424 L197.225872,120.451744 C197.225872,118.67284 198.672502,117.225872 200.451744,117.225872 L287.548256,117.225872 C289.32716,117.225872 290.774128,118.672502 290.774128,120.451744 L290.774128,178.516424 L290.774128,178.516424 Z M200.451744,178.516424 L287.548256,178.516424 L287.548256,120.451744 L200.451744,120.451744 L200.451744,178.516424 L200.451744,178.516424 Z M203.677277,123.677955 L284.322384,123.677955 L284.322384,175.290891 L203.677277,175.290891 L203.677277,123.677955 L203.677277,123.677955 Z M208.516085,130.129699 C209.406885,130.129699 210.129021,129.407563 210.129021,128.516763 C210.129021,127.625963 209.406885,126.903827 208.516085,126.903827 C207.625285,126.903827 206.903149,127.625963 206.903149,128.516763 C206.903149,129.407563 207.625285,130.129699 208.516085,130.129699 L208.516085,130.129699 Z M213.354893,130.129699 C214.245693,130.129699 214.967829,129.407563 214.967829,128.516763 C214.967829,127.625963 214.245693,126.903827 213.354893,126.903827 C212.464093,126.903827 211.741957,127.625963 211.741957,128.516763 C211.741957,129.407563 212.464093,130.129699 213.354893,130.129699 L213.354893,130.129699 Z M218.193701,130.129699 C219.084501,130.129699 219.806637,129.407563 219.806637,128.516763 C219.806637,127.625963 219.084501,126.903827 218.193701,126.903827 C217.302901,126.903827 216.580765,127.625963 216.580765,128.516763 C216.580765,129.407563 217.302901,130.129699 218.193701,130.129699 L218.193701,130.129699 Z M206.903149,152.710125 L229.483915,152.710125 L229.483915,133.355232 L206.903149,133.355232 L206.903149,152.710125 L206.903149,152.710125 Z M210.129021,136.580765 L226.258043,136.580765 L226.258043,149.483915 L210.129021,149.483915 L210.129021,136.580765 L210.129021,136.580765 Z M232.709787,152.710125 L255.290552,152.710125 L255.290552,133.355232 L232.709787,133.355232 L232.709787,152.710125 L232.709787,152.710125 Z M235.935659,136.580765 L252.06468,136.580765 L252.06468,149.483915 L235.935659,149.483915 L235.935659,136.580765 L235.935659,136.580765 Z M258.516085,152.710125 L281.096851,152.710125 L281.096851,133.355232 L258.516085,133.355232 L258.516085,152.710125 L258.516085,152.710125 L258.516085,152.710125 Z M261.741957,136.580765 L277.870979,136.580765 L277.870979,149.483915 L261.741957,149.483915 L261.741957,136.580765 L261.741957,136.580765 Z M206.903149,155.935659 L255.290213,155.935659 L255.290213,159.161531 L206.903149,159.161531 L206.903149,155.935659 L206.903149,155.935659 Z M206.903149,162.387403 L255.290213,162.387403 L255.290213,165.613275 L206.903149,165.613275 L206.903149,162.387403 L206.903149,162.387403 Z M206.903149,168.838808 L255.290213,168.838808 L255.290213,172.06468 L206.903149,172.06468 L206.903149,168.838808 L206.903149,168.838808 Z M260.129021,155.935659 L281.096851,155.935659 L281.096851,159.161531 L260.129021,159.161531 L260.129021,155.935659 L260.129021,155.935659 Z M260.129021,162.387403 L281.096851,162.387403 L281.096851,165.613275 L260.129021,165.613275 L260.129021,162.387403 L260.129021,162.387403 Z M260.129021,168.838808 L281.096851,168.838808 L281.096851,172.06468 L260.129021,172.06468 L260.129021,168.838808 L260.129021,168.838808 Z" id="home-services-tech"></path>
        </g>
    </g>
</svg>