<?xml version="1.0" encoding="UTF-8"?>
<svg width="100px" height="100px" viewBox="0 0 100 100" version="1.1" xmlns="http://www.w3.org/2000/svg" xmlns:xlink="http://www.w3.org/1999/xlink">
    <!-- Generator: Sketch 42 (36781) - http://www.bohemiancoding.com/sketch -->
    <title>home-services-innovation</title>
    <desc>Created with Sketch.</desc>
    <defs></defs>
    <g id="Home" stroke="none" stroke-width="1" fill="none" fill-rule="evenodd">
        <g id="Icons" transform="translate(-31.000000, -114.000000)" fill="#3F3F3F">
            <path d="M80.9998099,139.811944 C70.3294539,139.811944 61.6492496,148.492148 61.6492496,159.162504 C61.6492496,166.119061 65.3305394,172.446775 71.3243604,175.905583 L71.3243604,177.727772 C70.3504492,178.464639 69.7117855,179.620736 69.7117855,180.93362 C69.7117855,181.844545 70.0263765,182.676907 70.5373751,183.352482 C70.0260379,184.026364 69.7117855,184.858726 69.7117855,185.769651 C69.7117855,187.99346 71.5194136,189.801088 73.7432228,189.801088 L88.2560583,189.801088 C90.4798676,189.801088 92.2874956,187.99346 92.2874956,185.769651 C92.2874956,184.858726 91.9729047,184.026364 91.461906,183.350789 C91.9732433,182.675214 92.2874956,181.84319 92.2874956,180.931926 C92.2874956,179.619381 91.648832,178.463285 90.6749207,177.726079 L90.6749207,175.903889 C96.6687418,172.445082 100.350032,166.119061 100.350032,159.160811 C100.35037,148.492148 91.6701659,139.811944 80.9998099,139.811944 L80.9998099,139.811944 L80.9998099,139.811944 Z M88.256397,186.5756 L73.7435614,186.5756 C73.299951,186.5756 72.937274,186.212923 72.937274,185.769313 C72.937274,185.325702 73.299951,184.963025 73.7435614,184.963025 L88.256397,184.963025 C88.7000075,184.963025 89.0626844,185.325702 89.0626844,185.769313 C89.0630231,186.212923 88.7000075,186.5756 88.256397,186.5756 L88.256397,186.5756 L88.256397,186.5756 Z M88.256397,181.738214 L73.7435614,181.738214 C73.299951,181.738214 72.937274,181.375537 72.937274,180.931926 C72.937274,180.488316 73.299951,180.125639 73.7435614,180.125639 L88.256397,180.125639 C88.7000075,180.125639 89.0626844,180.488316 89.0626844,180.931926 C89.0626844,181.375537 88.7000075,181.738214 88.256397,181.738214 L88.256397,181.738214 L88.256397,181.738214 Z M88.3271715,173.510763 L87.4501095,173.962162 L87.4501095,176.900151 L82.6123848,176.900151 L82.6123848,165.38321 C85.3874901,164.662258 87.4501095,162.15806 87.4501095,159.162165 C87.4501095,155.604815 84.5571596,152.711866 80.9998099,152.711866 C77.4424602,152.711866 74.5495103,155.604815 74.5495103,159.162165 C74.5495103,162.158398 76.6117911,164.662597 79.387235,165.38321 L79.387235,176.900151 L74.5495103,176.900151 L74.5495103,173.962162 L73.6724483,173.512118 C68.2461778,170.735319 64.8743994,165.236581 64.8743994,159.162165 C64.8743994,150.270653 72.1082981,143.036755 80.9998099,143.036755 C89.8913217,143.036755 97.1252203,150.270653 97.1252203,159.162165 C97.1252203,165.23692 93.7537807,170.735658 88.3271715,173.510763 L88.3271715,173.510763 L88.3271715,173.510763 Z M129.828118,173.992978 C128.697757,168.828133 126.782105,163.616218 124.195619,158.510972 C127.956149,145.639495 126.287022,133.705357 118.790344,126.210033 C112.112821,119.534204 101.881334,117.291092 89.9597258,119.898574 C88.8002431,120.151872 87.6394059,120.461383 86.4765369,120.800017 C81.3729845,118.216579 76.1658101,116.30262 71.0043514,115.173953 C57.8277654,112.28913 46.5109572,114.762512 39.1368641,122.136944 C31.7624324,129.511376 29.2907431,140.829539 32.1721795,154.005786 C33.3025396,159.170631 35.2164988,164.382546 37.8033236,169.487792 C33.9733735,182.538067 35.7925151,194.374001 43.2085988,201.790085 C48.0703666,206.651853 54.8173095,209.16113 62.7267829,209.16113 C65.6810255,209.16113 68.7981511,208.809628 72.0375236,208.101545 C73.1970062,207.848247 74.3578434,207.538735 75.5207125,207.200101 C80.6242648,209.78354 85.8314392,211.697499 90.992898,212.826166 C94.5807248,213.609765 98.0300503,213.998517 101.300238,213.998517 C110.040381,213.998517 117.495069,211.228152 122.861401,205.861481 C130.237187,198.489081 132.709215,187.17058 129.828118,173.992978 L129.828118,173.992978 Z M116.509983,128.490394 C122.550535,134.530947 124.261314,143.943278 121.955555,154.394199 C118.324045,148.193811 113.701014,142.216245 108.24088,136.757804 C102.782439,131.29767 96.8048726,126.674639 90.6044848,123.043129 C100.961943,120.761413 110.407799,122.388549 116.509983,128.490394 L116.509983,128.490394 Z M35.3228298,153.317004 C32.6831781,141.251815 34.8470491,130.988159 41.4165479,124.416967 C46.1608097,119.672705 52.8285123,117.226752 60.7139426,117.226752 C63.747087,117.226752 66.9624164,117.589429 70.3165858,118.323248 C74.2349193,119.181008 78.189148,120.513194 82.0993544,122.269011 C73.0466528,125.716644 64.1277116,131.605488 56.3665599,139.36664 C53.5592844,142.173915 50.9805868,145.176583 48.6585737,148.292015 C47.9247539,148.04041 47.1492822,147.874479 46.3301266,147.874479 C42.3295051,147.874479 39.0735396,151.130106 39.0735396,155.131067 C39.0735396,157.193347 39.9475538,159.046352 41.3325667,160.368718 C40.5713176,161.958604 39.8764407,163.542057 39.2750268,165.11298 C37.516162,161.197355 36.1809283,157.240417 35.3228298,153.317004 L35.3228298,153.317004 Z M50.3619025,155.131067 C50.3619025,157.353183 48.5542745,159.162504 46.3304653,159.162504 C44.1066561,159.162504 42.299028,157.353183 42.299028,155.131067 C42.299028,152.908951 44.1066561,151.099629 46.3304653,151.099629 C48.5542745,151.099629 50.3619025,152.908951 50.3619025,155.131067 L50.3619025,155.131067 Z M45.4899758,199.509724 C39.5317113,193.55146 37.7254378,184.20821 40.0606575,173.633349 C43.6887818,179.823916 48.3070717,185.790308 53.7590784,191.240621 C59.2192124,196.702448 65.196779,201.327172 71.4002145,204.958683 C61.0397085,207.242092 51.5938529,205.614956 45.4899758,199.509724 L45.4899758,199.509724 Z M80.9998099,162.387654 C79.2213043,162.387654 77.7746601,160.941348 77.7746601,159.162504 C77.7746601,157.383998 79.2209657,155.937354 80.9998099,155.937354 C82.7786541,155.937354 84.2249597,157.38366 84.2249597,159.162504 C84.2252983,160.941009 82.7789927,162.387654 80.9998099,162.387654 L80.9998099,162.387654 Z M41.2580672,169.16338 C42.0128823,166.815631 42.9803595,164.422505 44.1235878,162.007029 C44.8235442,162.232898 45.5556708,162.387654 46.3294494,162.387654 C50.330071,162.387654 53.5860365,159.132027 53.5860365,155.131067 C53.5860365,153.115517 52.7570605,151.293328 51.4269063,149.975703 C53.6104181,147.073272 56.024201,144.272091 58.6479369,141.647001 C67.1574696,133.137468 76.8698301,127.216453 86.1450143,124.24765 C93.1127466,127.928939 99.8630759,132.939367 105.961535,139.037826 C112.058639,145.134931 117.068729,151.886615 120.751712,158.852654 C118.952549,164.446887 116.054859,170.230755 112.099275,175.891021 C111.215441,175.505656 110.243223,175.287914 109.219194,175.287914 C105.218572,175.287914 101.962606,178.543541 101.962606,182.544501 C101.962606,184.018236 102.409265,185.38564 103.167127,186.530562 C94.7029716,194.941552 85.0664651,200.80466 75.8586691,203.752469 C68.8909368,200.069486 62.1375598,195.059397 56.0387622,188.960599 C49.9467373,182.868574 44.9396956,176.122986 41.2580672,169.16338 Z M113.250969,182.544163 C113.250969,184.767972 111.443341,186.5756 109.219532,186.5756 C106.995723,186.5756 105.188095,184.767972 105.188095,182.544163 C105.188095,180.320354 106.995723,178.512725 109.219532,178.512725 C111.443341,178.512725 113.250969,180.320354 113.250969,182.544163 L113.250969,182.544163 Z M120.583411,203.583152 C114.015605,210.152651 103.756689,212.319908 91.6833726,209.67687 C87.7650391,208.81911 83.8125036,207.486924 79.9006041,205.731107 C88.9065742,202.301084 97.7804771,196.452537 105.512506,188.749291 C106.600876,189.402516 107.860255,189.80075 109.219871,189.80075 C113.220492,189.80075 116.476458,186.545123 116.476458,182.544163 C116.476458,180.733148 115.786322,179.094837 114.685084,177.822589 C118.140844,172.889709 120.827227,167.85219 122.72527,162.887139 C124.484474,166.804118 125.819707,170.761056 126.677467,174.684469 C129.316442,186.748303 127.152571,197.013653 120.583411,203.583152 L120.583411,203.583152 Z" id="home-services-innovation"></path>
        </g>
    </g>
</svg>