<?xml version="1.0" encoding="UTF-8"?>
<svg width="173px" height="40px" viewBox="0 0 173 40" version="1.1" xmlns="http://www.w3.org/2000/svg" xmlns:xlink="http://www.w3.org/1999/xlink">
    <!-- Generator: Sketch 42 (36781) - http://www.bohemiancoding.com/sketch -->
    <title>Multunus Logo</title>
    <desc>Created with Sketch.</desc>
    <defs></defs>
    <g id="Home" stroke="none" stroke-width="1" fill="none" fill-rule="evenodd">
        <g id="Icons" transform="translate(-203.000000, -242.000000)" fill-rule="nonzero" fill="#FFFFFF">
            <g id="Multunus-Logo" transform="translate(203.000000, 242.000000)">
                <g id="Logo-name" transform="translate(113.000000, 20.000000) scale(-1, 1) rotate(-180.000000) translate(-113.000000, -20.000000) translate(53.000000, 10.000000)">
                    <path d="M42.8321168,19.8540146 C42.0729927,19.7226277 41.6934307,19.459854 41.4306569,18.8905109 C41.1824818,18.3357664 41.1532847,17.7518248 41.1532847,10 C41.1532847,1.16788321 41.1532847,1.12408759 41.8686131,0.496350365 C42.2919708,0.116788321 43.459854,0.0145985401 44.0437956,0.321167883 C44.9781022,0.802919708 44.9489051,0.540145985 44.9489051,9.97080292 C44.9489051,18.9635036 44.9489051,18.9927007 44.3065693,19.5182482 C44.0291971,19.7518248 43.2262774,19.9270073 42.8321168,19.8540146 Z" id="Shape"></path>
                    <path d="M50.9781022,18.729927 C50.1751825,18.379562 50,17.9270073 49.9124088,15.9562044 L49.8394161,14.2043796 L49.2408759,14.1313869 C48,13.9562044 47.4160584,13.0948905 47.7372263,11.9124088 C47.9124088,11.2554745 48.3941606,10.8905109 49.2408759,10.7737226 L49.8394161,10.7007299 L49.9124088,6.02919708 C49.9708029,2.68613139 50.0437956,1.27007299 50.1605839,1.03649635 C50.8759124,-0.204379562 52.7445255,-0.204379562 53.459854,1.03649635 C53.5766423,1.27007299 53.649635,2.68613139 53.7080292,6.02919708 L53.7810219,10.7007299 L54.4379562,10.7445255 C55.4452555,10.8029197 55.7518248,10.9051095 56.1313869,11.3138686 C56.4087591,11.6058394 56.4817518,11.8540146 56.4817518,12.4525547 C56.4817518,13.0510949 56.4087591,13.2992701 56.1313869,13.5912409 C55.7518248,14 55.4452555,14.1021898 54.4379562,14.1605839 L53.7810219,14.2043796 L53.7080292,15.9708029 C53.620438,17.9562044 53.4452555,18.3941606 52.6131387,18.7445255 C52,18.9927007 51.5766423,18.9927007 50.9781022,18.729927 Z" id="Shape"></path>
                    <path d="M112.335766,14.4087591 C110.788321,14.1751825 109.416058,13.2408759 108.80292,11.9708029 C108.408759,11.1532847 108.350365,9.64963504 108.715328,8.84671533 C109.372263,7.35766423 110.277372,6.74452555 113.065693,5.95620438 C114.175182,5.6350365 114.759124,5.38686131 114.992701,5.12408759 C115.416058,4.67153285 115.40146,4.55474453 114.890511,4.04379562 C114.554745,3.7080292 114.335766,3.62043796 113.854015,3.62043796 C113.138686,3.62043796 112.890511,3.73722628 111.737226,4.64233577 C110.49635,5.62043796 109.970803,5.8540146 109.29927,5.76642336 C107.79562,5.5620438 107.211679,3.64963504 108.262774,2.33576642 C110.80292,-0.817518248 116.729927,-0.715328467 118.583942,2.51094891 C119.094891,3.38686131 119.29927,4.59854015 119.124088,5.57664234 C118.934307,6.58394161 118.686131,7.06569343 118.058394,7.64963504 C117.386861,8.2919708 116.686131,8.61313869 114.729927,9.18248175 C112.948905,9.69343066 112.335766,10.0875912 112.423358,10.6569343 C112.452555,10.8321168 112.642336,11.080292 112.861314,11.1970803 C113.226277,11.4014599 113.313869,11.3868613 114.613139,10.729927 C115.357664,10.350365 116.175182,10.0437956 116.408759,10.0437956 C117.416058,10.0437956 118.350365,11.0948905 118.160584,12.0291971 C117.868613,13.6642336 115.036496,14.8175182 112.335766,14.4087591 Z" id="Shape"></path>
                    <path d="M4.10218978,14.1459854 C2.4379562,13.5766423 1.05109489,12.2481752 0.379562044,10.5839416 C0.0875912409,9.88321168 0.0583941606,9.48905109 0.0145985401,5.88321168 C-0.0145985401,2.90510949 0.0145985401,1.79562044 0.160583942,1.35766423 C0.656934307,-0.116788321 2.84671533,-0.335766423 3.59124088,1.03649635 C3.82481752,1.43065693 3.86861314,2.05839416 3.94160584,5.44525547 C3.98540146,7.62043796 4.02919708,9.40145985 4.04379562,9.41605839 C4.05839416,9.43065693 4.27737226,9.67883212 4.52554745,9.97080292 C5.6350365,11.2408759 7.59124088,10.8175182 8.1459854,9.18248175 C8.24817518,8.87591241 8.30656934,7.40145985 8.32116788,5.24087591 C8.32116788,2.97810219 8.37956204,1.62043796 8.49635036,1.28467153 C8.97810219,-0.131386861 11.1970803,-0.291970803 11.9124088,1.03649635 C12.1459854,1.43065693 12.189781,2.04379562 12.2481752,5.29927007 C12.3357664,9.50364964 12.3649635,9.69343066 13.270073,10.3065693 C13.6934307,10.5985401 13.9124088,10.6423358 14.5547445,10.5985401 C15.1824818,10.540146 15.4160584,10.4379562 15.8248175,10.0437956 C16.5255474,9.37226277 16.6277372,8.68613139 16.6277372,4.84671533 C16.6277372,1.21167883 16.7007299,0.832116788 17.4890511,0.364963504 C18.0875912,0.0145985401 19.1240876,0.0437956204 19.6058394,0.423357664 C20.3941606,1.03649635 20.4233577,1.24087591 20.4233577,5.43065693 C20.4233577,8.75912409 20.379562,9.40145985 20.1605839,10.1459854 C19.6350365,11.8248175 18.540146,13.080292 16.9489051,13.8686131 C16.1167883,14.2773723 15.810219,14.350365 14.5985401,14.3941606 C13.0364964,14.4525547 12.1313869,14.2189781 10.9051095,13.4014599 L10.2481752,12.9635036 L9.38686131,13.4744526 C8.90510949,13.7664234 8.20437956,14.0875912 7.81021898,14.2043796 C6.80291971,14.5109489 5.05109489,14.4817518 4.10218978,14.1459854 Z" id="Shape"></path>
                    <path d="M25.5766423,14.2189781 C25.3138686,14.1021898 24.9635036,13.7810219 24.8029197,13.5182482 C24.5109489,13.0510949 24.4963504,12.8613139 24.540146,8.87591241 C24.5985401,3.94160584 24.6715328,3.66423358 26.1313869,2.10218978 C29.0510949,-1.03649635 33.9708029,-0.554744526 36.1605839,3.06569343 C36.9051095,4.32116788 37.0656934,5.38686131 37.0656934,9.31386861 C37.0656934,12.3357664 37.0218978,12.8175182 36.7883212,13.3430657 C36.3211679,14.3649635 35.0656934,14.729927 34.1313869,14.0875912 C33.3138686,13.5328467 33.270073,13.3430657 33.270073,9.95620438 C33.270073,5.7080292 33.1094891,5.02189781 31.9562044,4.24817518 C30.729927,3.40145985 28.8905109,4.18978102 28.4671533,5.73722628 C28.379562,6.0729927 28.3065693,7.69343066 28.3065693,9.57664234 C28.3065693,13.1094891 28.2189781,13.6058394 27.5182482,14.0583942 C27.0072993,14.3941606 26.1313869,14.4671533 25.5766423,14.2189781 Z" id="Shape"></path>
                    <path d="M59.8394161,14.1605839 C58.8905109,13.6934307 58.8175182,13.3576642 58.8175182,9.28467153 C58.8175182,4.3649635 59.0218978,3.54744526 60.6423358,1.94160584 C63.1970803,-0.598540146 66.9781022,-0.642335766 69.4890511,1.86861314 C71.1386861,3.50364964 71.3722628,4.4379562 71.3722628,9.31386861 C71.3722628,13.3284672 71.3138686,13.6350365 70.3357664,14.1605839 C69.7372263,14.4817518 69.3430657,14.4963504 68.6715328,14.2189781 C67.7080292,13.810219 67.6642336,13.620438 67.5766423,9.45985401 C67.5036496,5.88321168 67.4890511,5.7080292 67.1532847,5.13868613 C66.9635036,4.80291971 66.5693431,4.39416058 66.2627737,4.2189781 C65.1240876,3.57664234 63.6934307,3.98540146 63.0364964,5.13868613 C62.7007299,5.7080292 62.6861314,5.88321168 62.6131387,9.45985401 C62.5255474,13.620438 62.4817518,13.810219 61.5182482,14.2189781 C60.8613139,14.4817518 60.4525547,14.4817518 59.8394161,14.1605839 Z" id="Shape"></path>
                    <path d="M79.6058394,14.1459854 C77.6934307,13.4452555 76.2481752,11.9270073 75.6934307,10.0583942 C75.5036496,9.41605839 75.459854,8.49635036 75.459854,5.34306569 C75.459854,1.00729927 75.5036496,0.773722628 76.3649635,0.321167883 C76.9489051,0.0145985401 78.1167883,0.116788321 78.540146,0.496350365 C79.1824818,1.06569343 79.2554745,1.51824818 79.2554745,5.15328467 C79.2554745,8.89051095 79.3138686,9.21167883 80.0729927,9.9270073 C80.5547445,10.379562 81.1386861,10.6277372 81.6934307,10.6277372 C82.3357664,10.6277372 83.2992701,10.0583942 83.6642336,9.48905109 C83.9854015,8.97810219 84,8.78832117 84.0729927,5.22627737 C84.1605839,1.12408759 84.2189781,0.788321168 85.0948905,0.335766423 C86.0145985,-0.145985401 87.2116788,0.175182482 87.6788321,1.03649635 C87.8978102,1.43065693 87.9416058,1.97080292 87.9854015,4.62773723 C88.0437956,8.3649635 87.8832117,9.7810219 87.2846715,11.0072993 C86.729927,12.1459854 85.5328467,13.2846715 84.2627737,13.8832117 C83.3868613,14.2919708 83.0948905,14.350365 81.810219,14.379562 C80.6715328,14.4087591 80.189781,14.350365 79.6058394,14.1459854 Z" id="Shape"></path>
                    <path d="M93.1824818,14.2919708 C92.6569343,14.0583942 92.1313869,13.2846715 92.0291971,12.5985401 C91.9708029,12.2481752 91.9562044,10.4233577 91.9854015,8.55474453 C92.0437956,5.6350365 92.1021898,5.02189781 92.350365,4.24817518 C93.2846715,1.43065693 96.4233577,-0.423357664 99.3284672,0.102189781 C101.357664,0.467153285 103.372263,2.05839416 104.087591,3.86861314 C104.423358,4.67153285 104.437956,4.90510949 104.481752,8.87591241 C104.510949,12.8613139 104.510949,13.0510949 104.218978,13.5182482 C103.912409,14.0145985 103.167883,14.4233577 102.59854,14.4233577 C101.970803,14.4233577 101.270073,13.9562044 100.992701,13.3430657 C100.759124,12.8175182 100.715328,12.3357664 100.715328,9.31386861 C100.715328,6.02919708 100.70073,5.83941606 100.394161,5.22627737 C99.8978102,4.27737226 99.4160584,3.98540146 98.3065693,3.98540146 C97.2554745,3.98540146 96.7591241,4.24817518 96.2627737,5.09489051 C96,5.54744526 95.9708029,5.9270073 95.8978102,9.31386861 C95.8248175,13.3576642 95.7810219,13.5182482 94.9489051,14.0729927 C94.5255474,14.350365 93.6058394,14.4671533 93.1824818,14.2919708 Z" id="Shape"></path>
                </g>
                <path d="M18.1860363,39.9638854 C18.01971,39.9352084 17.8017652,39.8778545 17.6985281,39.8377068 C17.6010265,39.7918237 13.8500814,37.4173722 9.37074171,34.5496771 C3.9852104,31.1084431 1.12898613,29.2501767 0.933982867,29.0609088 C0.57265329,28.71105 0.257206834,28.1891295 0.108086691,27.695886 C-0.0066211109,27.328821 -0.0066211109,27.1567593 0.00484966931,17.567187 L0.0220558396,7.81128845 L0.268677614,7.31230951 C0.721773433,6.40038249 0.56118251,6.5093549 6.02700928,3.36062573 C8.75705497,1.78912884 11.1028295,0.475724507 11.3781283,0.361016704 C12.1351997,0.0570410288 12.5481478,-0.0232544327 13.24213,0.00542251784 C13.7009612,0.0283640783 13.9131707,0.0627764189 14.1311155,0.160278051 C15.0831903,0.584696919 15.725554,1.55397785 16.063942,3.09679779 L16.1958559,3.69327836 L16.1958559,13.0993181 L16.1958559,22.5053579 L16.0123235,22.8781583 C15.9090864,23.0846323 15.7198186,23.359931 15.5821692,23.491845 C15.094661,23.962147 14.1139093,24.3750951 13.270807,24.4611259 C12.594031,24.5299506 11.6190146,24.2775934 10.8791493,23.8417038 C10.4088473,23.5606697 10.1851671,23.3197833 9.95001611,22.8208044 L9.77221902,22.448004 L9.74354207,16.9133526 C9.71486512,11.6081167 9.70912973,11.3672303 9.60589271,11.1206085 C9.22735696,10.2373585 8.52190398,9.66381946 7.62718312,9.50896392 C6.4801051,9.30248988 5.28714396,10.0595614 4.89140204,11.2353163 C4.78816502,11.5335566 4.78242963,11.8662093 4.78242963,18.4905848 C4.78242963,25.8089426 4.77669424,25.6999702 5.03478679,25.9982105 C5.0864053,26.0555644 5.35023325,26.256303 5.63126736,26.4455709 C6.24495411,26.858519 9.76074824,28.9920841 10.2654626,29.2559121 L10.6325275,29.4451799 L12.9840375,29.4451799 C14.9168639,29.4451799 15.3699598,29.4279738 15.5362861,29.3591491 C15.6452585,29.313266 16.2417391,28.9748779 16.8611612,28.6020776 C18.6506029,27.5295596 18.7939877,27.535295 20.6694602,28.6651669 C21.4322671,29.1297335 21.8910983,29.3706199 22.0861016,29.4107676 C22.2581633,29.4509153 23.2045026,29.4738569 24.5007008,29.4738569 C26.3933795,29.4681215 26.6686783,29.4566507 26.9210354,29.3706199 C27.3225127,29.2272351 31.796117,26.5086602 32.3467145,26.0727706 C32.3925976,26.0383582 32.4786285,25.8949735 32.530247,25.7573241 C32.6220132,25.5336439 32.6277486,24.9715757 32.6277486,18.7830897 C32.6277486,12.1988619 32.6277486,12.0440064 32.5130408,11.6769414 C32.4442161,11.4589966 32.2893606,11.1550209 32.1402404,10.9542822 C31.090664,9.53190548 28.9054804,9.66381946 28.0164949,11.1951686 C27.6781069,11.774443 27.6895777,11.5564982 27.64943,17.3205652 L27.6092823,22.6200657 L27.4486913,22.9240414 C27.2192757,23.3541956 26.8808877,23.6696421 26.341761,23.9506762 C25.0570337,24.6217169 23.7723063,24.6217169 22.533462,23.962147 C21.9828646,23.6639067 21.6559473,23.3484603 21.4265317,22.8781583 L21.2429992,22.5053579 L21.2257931,13.3287337 C21.2085869,3.11973935 21.1971161,3.47533353 21.592858,2.29384317 C21.9427168,1.23853139 22.4761081,0.556019968 23.2045026,0.206161172 C23.5830384,0.0283640783 23.6174507,0.0226286882 24.3401099,0.0283640783 C24.9996798,0.0283640783 25.1430645,0.0455702486 25.5732188,0.188955001 C26.3016133,0.429841386 26.5597059,0.573226138 31.5839076,3.46959814 C34.92764,5.39668922 36.2926629,6.21685 36.4934015,6.40611788 C36.8662019,6.76744745 37.1931191,7.27789717 37.3307685,7.7252576 C37.4454763,8.08658718 37.4454763,8.27585505 37.4454763,17.6818948 C37.4454763,24.0195009 37.4225347,27.3517625 37.382387,27.5238242 C37.2848854,27.9597139 36.9350266,28.5906068 36.5909032,28.9576718 C36.3328106,29.2329705 35.7936839,29.6057709 33.8321805,30.8560859 C32.4900992,31.710659 28.8022434,34.0736397 25.6305727,36.0982325 C22.1090431,38.3465054 19.7575332,39.8205006 19.5797361,39.8721191 C19.2126711,39.9925623 18.5760428,40.0384455 18.1860363,39.9638854 Z" id="Logo-Mark" transform="translate(18.722738, 20.000000) scale(1, -1) translate(-18.722738, -20.000000) "></path>
            </g>
        </g>
    </g>
</svg>