<?xml version="1.0" encoding="UTF-8"?>
<svg width="1440px" height="600px" viewBox="0 0 1440 600" version="1.1" xmlns="http://www.w3.org/2000/svg" xmlns:xlink="http://www.w3.org/1999/xlink">
    <!-- Generator: Sketch 42 (36781) - http://www.bohemiancoding.com/sketch -->
    <title>services-innovation-consulting</title>
    <desc>Created with Sketch.</desc>
    <defs></defs>
    <g id="Services" stroke="none" stroke-width="1" fill="none" fill-rule="evenodd">
        <g id="services-innovation-consulting">
            <g id="Graph" transform="translate(18.000000, 400.000000)">
                <path id="Path-345" stroke="#979797"></path>
                <polyline id="Path-346" stroke="#4D8FFF" stroke-width="2" stroke-linecap="round" stroke-linejoin="round" opacity="0.5" points="6.48717949 162.333333 54.5641026 111.692308 100.717949 162.974359 147.512821 147.589744 193.025641 116.179487 243.666667 7.84615385 284.051282 46.3076923 327.641026 61.0512821 376.358974 55.2820513 423.794872 75.1538462 469.948718 100.153846 520.589744 83.4871795 564.179487 61.0512821 614.054287 38.775641 660.458534 94.5448718 705.866186 104.570913 753.071715 70.9671474 798.92508 83.1165865 846.345954 40.1628606 892.589944 25.8449519 937.001002 38.2598157 984.527043 29.7311699 1031.55729 51.671274 1079.08333 105.216947 1125.77304 135.575521 1171.25581 34.9645433 1216.38301 81.0482772 1262.34155 55.3521635 1309.08634 99.7481971 1350.91326 111.607171 1397.03706 84.9695513"></polyline>
                <g id="Points" stroke="#FFFFFF" stroke-width="3" fill="#4D8FFF">
                    <ellipse id="Oval-19" cx="7" cy="162.128205" rx="7" ry="7"></ellipse>
                    <ellipse id="Oval-19" cx="55.7179487" cy="112.128205" rx="7" ry="7"></ellipse>
                    <circle id="Oval-19" cx="101.871795" cy="160.846154" r="7"></circle>
                    <ellipse id="Oval-19" cx="148.025641" cy="146.74359" rx="7" ry="7"></ellipse>
                    <ellipse id="Oval-19" cx="194.179487" cy="115.974359" rx="7" ry="7"></ellipse>
                    <ellipse id="Oval-19" cx="244.179487" cy="7" rx="7" ry="7"></ellipse>
                    <ellipse id="Oval-19" cx="286.487179" cy="45.4615385" rx="7" ry="7"></ellipse>
                    <circle id="Oval-19" cx="330.076923" cy="59.5641026" r="7"></circle>
                    <ellipse id="Oval-19" cx="377.512821" cy="54.4358974" rx="7" ry="7"></ellipse>
                    <ellipse id="Oval-19" cx="424.948718" cy="73.6666667" rx="7" ry="7"></ellipse>
                    <ellipse id="Oval-19" cx="472.384615" cy="99.3076923" rx="7" ry="7"></ellipse>
                    <ellipse id="Oval-19" cx="522.384615" cy="82.6410256" rx="7" ry="7"></ellipse>
                    <ellipse id="Oval-19" cx="564.692308" cy="60.8461538" rx="7" ry="7"></ellipse>
                    <ellipse id="Oval-19" cx="614.692308" cy="39.0512821" rx="7" ry="7"></ellipse>
                    <ellipse id="Oval-19" cx="660.846154" cy="91.6153846" rx="7" ry="7"></ellipse>
                    <ellipse id="Oval-19" cx="707" cy="101.871795" rx="7" ry="7"></ellipse>
                    <ellipse id="Oval-19" cx="755.717949" cy="72.3846154" rx="7" ry="7"></ellipse>
                    <ellipse id="Oval-19" cx="799.307692" cy="82.6410256" rx="7" ry="7"></ellipse>
                    <ellipse id="Oval-19" cx="848.025641" cy="40.3333333" rx="7" ry="7"></ellipse>
                    <ellipse id="Oval-19" cx="892.897436" cy="26.2307692" rx="7" ry="7"></ellipse>
                    <ellipse id="Oval-19" cx="939.051282" cy="36.4871795" rx="7" ry="7"></ellipse>
                    <ellipse id="Oval-19" cx="983.923077" cy="30.0769231" rx="7" ry="7"></ellipse>
                    <ellipse id="Oval-19" cx="1033.92308" cy="51.8717949" rx="7" ry="7"></ellipse>
                    <ellipse id="Oval-19" cx="1080.07692" cy="103.153846" rx="7" ry="7"></ellipse>
                    <ellipse id="Oval-19" cx="1126.23077" cy="132.641026" rx="7" ry="7"></ellipse>
                    <ellipse id="Oval-19" cx="1173.66667" cy="35.2051282" rx="7" ry="7"></ellipse>
                    <ellipse id="Oval-19" cx="1217.25641" cy="78.7948718" rx="7" ry="7"></ellipse>
                    <ellipse id="Oval-19" cx="1263.41026" cy="55.7179487" rx="7" ry="7"></ellipse>
                    <ellipse id="Oval-19" cx="1309.5641" cy="96.7435897" rx="7" ry="7"></ellipse>
                    <ellipse id="Oval-19" cx="1351.87179" cy="109.564103" rx="7" ry="7"></ellipse>
                    <ellipse id="Oval-19" cx="1399.30769" cy="82.6410256" rx="7" ry="7"></ellipse>
                </g>
            </g>
            <g id="Design-Sprint" transform="translate(1088.000000, 61.000000)">
                <path d="M140,211 C189.705627,211 230,170.705627 230,121 C230,71.2943725 189.705627,31 140,31 C90.2943725,31 50,71.2943725 50,121" id="Oval" stroke="#EBEBEB" stroke-width="3"></path>
                <path d="M50,121 C50,170.705627 90.2943725,211 140,211 L140,211" id="Oval" stroke="#EBEBEB" stroke-width="3"></path>
                <g id="Step-1" transform="translate(37.000000, 108.000000)">
                    <circle id="Oval-2" fill="#4D8FFF" cx="13" cy="13" r="13"></circle>
                    <polygon id="1" fill="#FFFFFF" points="13.7 17 13.7 8.996 13.076 8.996 11.312 10.856 11.732 11.3 13.016 9.932 13.016 17"></polygon>
                </g>
                <g id="Step-2" transform="translate(158.000000, 23.000000)">
                    <circle id="Oval-2-Copy-3" fill="#4D8FFF" cx="13" cy="13" r="13"></circle>
                    <path d="M15.952,17 L15.952,16.376 L11.74,16.376 C14.056,14.504 15.916,12.896 15.916,11.132 C15.916,9.548 14.572,8.876 13.396,8.876 C12.268,8.876 11.296,9.344 10.732,10.112 L11.2,10.544 C11.632,9.932 12.4,9.5 13.396,9.5 C14.272,9.5 15.22,9.98 15.22,11.132 C15.22,12.68 13.396,14.24 10.672,16.436 L10.672,17 L15.952,17 Z" id="2" fill="#FFFFFF"></path>
                </g>
                <g id="Step-3" transform="translate(167.000000, 185.000000)">
                    <circle id="Oval-2-Copy" fill="#4D8FFF" cx="13" cy="13" r="13"></circle>
                    <path d="M13.108,17.144 C14.812,17.144 15.808,16.172 15.808,14.852 C15.808,13.532 14.668,12.932 13.972,12.86 C14.656,12.74 15.688,12.212 15.688,10.988 C15.688,9.632 14.5,8.876 13.108,8.876 C11.944,8.876 11.056,9.404 10.492,10.088 L10.924,10.52 C11.512,9.86 12.16,9.5 13.072,9.5 C14.104,9.5 14.992,10.052 14.992,11.048 C14.992,12.116 14.032,12.572 12.964,12.572 C12.64,12.572 12.34,12.572 12.22,12.56 L12.22,13.208 C12.34,13.196 12.64,13.184 12.964,13.184 C14.164,13.184 15.112,13.664 15.112,14.816 C15.112,15.872 14.332,16.52 13.096,16.52 C12.076,16.52 11.296,16.04 10.852,15.404 L10.384,15.812 C10.852,16.532 11.8,17.144 13.108,17.144 Z" id="3" fill="#FFFFFF"></path>
                </g>
                <path d="M154.234,10 L154.234,0.662 L152.568,0.662 L149.67,7.858 L146.758,0.662 L145.092,0.662 L145.092,10 L146.254,10 L146.254,2.146 L149.432,10 L149.908,10 L153.072,2.146 L153.072,10 L154.234,10 Z M159.442,10.168 C157.426,10.168 155.984,8.726 155.984,6.612 C155.984,4.652 157.384,3.07 159.316,3.07 C161.36,3.07 162.564,4.666 162.564,6.696 L162.564,6.962 L157.104,6.962 C157.188,8.236 158.07,9.3 159.526,9.3 C160.31,9.3 161.08,8.992 161.626,8.432 L162.13,9.118 C161.444,9.79 160.534,10.168 159.442,10.168 Z M161.528,6.178 C161.514,5.184 160.842,3.938 159.302,3.938 C157.86,3.938 157.146,5.156 157.09,6.178 L161.528,6.178 Z M169.536,10 L168.486,10 L168.486,9.23 C167.94,9.846 167.156,10.168 166.246,10.168 C165.112,10.168 163.894,9.398 163.894,7.928 C163.894,6.402 165.098,5.702 166.246,5.702 C167.17,5.702 167.94,5.996 168.486,6.612 L168.486,5.394 C168.486,4.498 167.758,3.98 166.778,3.98 C165.966,3.98 165.308,4.26 164.706,4.918 L164.216,4.19 C164.944,3.434 165.812,3.07 166.918,3.07 C168.36,3.07 169.536,3.714 169.536,5.352 L169.536,10 Z M166.638,9.412 C167.366,9.412 168.08,9.132 168.486,8.572 L168.486,7.284 C168.08,6.738 167.366,6.458 166.638,6.458 C165.644,6.458 164.958,7.074 164.958,7.928 C164.958,8.796 165.644,9.412 166.638,9.412 Z M173.806,10.168 C175.542,10.168 176.452,9.258 176.452,8.124 C176.452,5.492 172.266,6.458 172.266,4.988 C172.266,4.386 172.84,3.924 173.764,3.924 C174.646,3.924 175.374,4.288 175.78,4.778 L176.27,4.05 C175.738,3.504 174.926,3.07 173.764,3.07 C172.154,3.07 171.258,3.952 171.258,5.016 C171.258,7.522 175.444,6.514 175.444,8.152 C175.444,8.824 174.87,9.314 173.834,9.314 C172.91,9.314 172.056,8.866 171.608,8.348 L171.076,9.104 C171.762,9.818 172.686,10.168 173.806,10.168 Z M183.774,10 L183.774,3.238 L182.724,3.238 L182.724,8.208 C182.332,8.754 181.548,9.23 180.736,9.23 C179.812,9.23 179.21,8.88 179.21,7.69 L179.21,3.238 L178.16,3.238 L178.16,8.012 C178.16,9.468 178.902,10.168 180.316,10.168 C181.324,10.168 182.206,9.636 182.724,9.048 L182.724,10 L183.774,10 Z M186.924,10 L186.924,5.212 C187.232,4.666 188.114,4.134 188.772,4.134 C188.926,4.134 189.052,4.148 189.178,4.162 L189.178,3.084 C188.254,3.084 187.47,3.616 186.924,4.316 L186.924,3.238 L185.874,3.238 L185.874,10 L186.924,10 Z M193.56,10.168 C191.544,10.168 190.102,8.726 190.102,6.612 C190.102,4.652 191.502,3.07 193.434,3.07 C195.478,3.07 196.682,4.666 196.682,6.696 L196.682,6.962 L191.222,6.962 C191.306,8.236 192.188,9.3 193.644,9.3 C194.428,9.3 195.198,8.992 195.744,8.432 L196.248,9.118 C195.562,9.79 194.652,10.168 193.56,10.168 Z M195.646,6.178 C195.632,5.184 194.96,3.938 193.42,3.938 C191.978,3.938 191.264,5.156 191.208,6.178 L195.646,6.178 Z" id="Measure" fill="#333333"></path>
                <path d="M173.44,235 L173.44,233.964 L169.1,233.964 L169.1,225.662 L167.938,225.662 L167.938,235 L173.44,235 Z M178.018,235.168 C176.002,235.168 174.56,233.726 174.56,231.612 C174.56,229.652 175.96,228.07 177.892,228.07 C179.936,228.07 181.14,229.666 181.14,231.696 L181.14,231.962 L175.68,231.962 C175.764,233.236 176.646,234.3 178.102,234.3 C178.886,234.3 179.656,233.992 180.202,233.432 L180.706,234.118 C180.02,234.79 179.11,235.168 178.018,235.168 Z M180.104,231.178 C180.09,230.184 179.418,228.938 177.878,228.938 C176.436,228.938 175.722,230.156 175.666,231.178 L180.104,231.178 Z M188.112,235 L187.062,235 L187.062,234.23 C186.516,234.846 185.732,235.168 184.822,235.168 C183.688,235.168 182.47,234.398 182.47,232.928 C182.47,231.402 183.674,230.702 184.822,230.702 C185.746,230.702 186.516,230.996 187.062,231.612 L187.062,230.394 C187.062,229.498 186.334,228.98 185.354,228.98 C184.542,228.98 183.884,229.26 183.282,229.918 L182.792,229.19 C183.52,228.434 184.388,228.07 185.494,228.07 C186.936,228.07 188.112,228.714 188.112,230.352 L188.112,235 Z M185.214,234.412 C185.942,234.412 186.656,234.132 187.062,233.572 L187.062,232.284 C186.656,231.738 185.942,231.458 185.214,231.458 C184.22,231.458 183.534,232.074 183.534,232.928 C183.534,233.796 184.22,234.412 185.214,234.412 Z M191.276,235 L191.276,230.212 C191.584,229.666 192.466,229.134 193.124,229.134 C193.278,229.134 193.404,229.148 193.53,229.162 L193.53,228.084 C192.606,228.084 191.822,228.616 191.276,229.316 L191.276,228.238 L190.226,228.238 L190.226,235 L191.276,235 Z M200.46,235 L200.46,230.254 C200.46,228.784 199.718,228.07 198.318,228.07 C197.296,228.07 196.372,228.644 195.896,229.218 L195.896,228.238 L194.846,228.238 L194.846,235 L195.896,235 L195.896,230.058 C196.302,229.512 197.072,229.008 197.898,229.008 C198.808,229.008 199.424,229.372 199.424,230.576 L199.424,235 L200.46,235 Z" id="Learn" fill="#333333"></path>
                <path d="M4.348,125 L0.092,125 L0.092,115.662 L4.25,115.662 C5.874,115.662 6.868,116.642 6.868,118.042 C6.868,119.218 6.084,120.002 5.23,120.184 C6.224,120.338 7.05,121.36 7.05,122.48 C7.05,123.978 6.056,125 4.348,125 Z M4.054,119.708 C5.104,119.708 5.664,119.064 5.664,118.21 C5.664,117.37 5.104,116.698 4.054,116.698 L1.254,116.698 L1.254,119.708 L4.054,119.708 Z M4.124,123.964 C5.202,123.964 5.846,123.348 5.846,122.354 C5.846,121.5 5.258,120.744 4.124,120.744 L1.254,120.744 L1.254,123.964 L4.124,123.964 Z M14.47,125 L14.47,118.238 L13.42,118.238 L13.42,123.208 C13.028,123.754 12.244,124.23 11.432,124.23 C10.508,124.23 9.906,123.88 9.906,122.69 L9.906,118.238 L8.856,118.238 L8.856,123.012 C8.856,124.468 9.598,125.168 11.012,125.168 C12.02,125.168 12.902,124.636 13.42,124.048 L13.42,125 L14.47,125 Z M17.102,117.272 C17.494,117.272 17.802,116.964 17.802,116.572 C17.802,116.18 17.494,115.858 17.102,115.858 C16.71,115.858 16.388,116.18 16.388,116.572 C16.388,116.964 16.71,117.272 17.102,117.272 Z M17.62,125 L17.62,118.238 L16.57,118.238 L16.57,125 L17.62,125 Z M20.77,125 L20.77,115.662 L19.72,115.662 L19.72,125 L20.77,125 Z M28.82,125 L27.77,125 L27.77,123.992 C27.266,124.678 26.44,125.168 25.488,125.168 C23.724,125.168 22.478,123.824 22.478,121.626 C22.478,119.456 23.724,118.07 25.488,118.07 C26.398,118.07 27.224,118.518 27.77,119.26 L27.77,115.662 L28.82,115.662 L28.82,125 Z M25.754,124.23 C26.58,124.23 27.406,123.74 27.77,123.152 L27.77,120.1 C27.406,119.512 26.58,119.008 25.754,119.008 C24.382,119.008 23.57,120.128 23.57,121.626 C23.57,123.124 24.382,124.23 25.754,124.23 Z" id="Build" fill="#333333"></path>
            </g>
        </g>
    </g>
</svg>