<?xml version="1.0" encoding="UTF-8"?>
<svg width="1440px" height="600px" viewBox="0 0 1440 600" version="1.1" xmlns="http://www.w3.org/2000/svg" xmlns:xlink="http://www.w3.org/1999/xlink">
    <!-- Generator: Sketch 42 (36781) - http://www.bohemiancoding.com/sketch -->
    <title>services-mobile-development</title>
    <desc>Created with Sketch.</desc>
    <defs>
        <path d="M189.698702,110.296207 L189.698702,357.807937 C189.698702,372.916145 177.330348,385.159928 162.072042,385.159928 L28.2035437,385.159928 C12.9494878,385.159928 0.57688345,372.91404 0.57688345,357.807937 L0.57688345,27.3615456 C0.57688345,12.2533382 12.9452379,0.0095551942 28.2035437,0.0095551942 L162.072042,0.0095551942 C177.326098,0.0095551942 189.698702,12.2554429 189.698702,27.3615456 L189.698702,82.3001945 C189.440519,82.490665 189.273709,82.7947865 189.273709,83.1357393 L189.273709,109.458557 C189.273709,109.801615 189.439457,110.105736 189.698702,110.296207 L189.698702,110.296207 Z" id="path-1"></path>
        <mask id="mask-2" maskContentUnits="userSpaceOnUse" maskUnits="objectBoundingBox" x="-2" y="-2" width="193.121819" height="389.150373">
            <rect x="-1.42311655" y="-1.99044481" width="193.121819" height="389.150373" fill="white"></rect>
            <use xlink:href="#path-1" fill="black"></use>
        </mask>
        <path d="M0.177430842,82.6116822 L0.177430842,111.555838 M0.267360547,48.8805072 L0.267360547,63.7372093 M0.177430842,116.827978 L0.177430842,146.195168" id="path-3"></path>
        <mask id="mask-4" maskContentUnits="userSpaceOnUse" maskUnits="objectBoundingBox" x="-2" y="-2" width="5.15241183" height="101.314661">
            <rect x="-1.82256916" y="46.8805072" width="5.15241183" height="101.314661" fill="white"></rect>
            <use xlink:href="#path-3" fill="black"></use>
        </mask>
        <path d="M95.1377929,374.636694 C103.352905,374.636694 110.012543,368.04073 110.012543,359.904166 C110.012543,351.767601 103.352905,345.171638 95.1377929,345.171638 C86.922681,345.171638 80.2630431,351.767601 80.2630431,359.904166 C80.2630431,368.04073 86.922681,374.636694 95.1377929,374.636694 L95.1377929,374.636694 Z" id="path-5"></path>
        <mask id="mask-6" maskContentUnits="userSpaceOnUse" maskUnits="objectBoundingBox" x="-2" y="-2" width="33.7494996" height="33.4650558">
            <rect x="78.2630431" y="343.171638" width="33.7494996" height="33.4650558" fill="white"></rect>
            <use xlink:href="#path-5" fill="black"></use>
        </mask>
        <path d="M13.2188794,40.5744235 C12.0410017,40.5744235 11.0859081,41.530895 11.0859081,42.7022799 L11.0859081,334.218595 C11.0859081,335.394235 12.0420676,336.346451 13.2188794,336.346451 L175.241558,336.346451 C176.419436,336.346451 177.374529,335.38998 177.374529,334.218595 L177.374529,42.7022799 C177.374529,41.5266392 176.41837,40.5744235 175.241558,40.5744235 L13.2188794,40.5744235 L13.2188794,40.5744235 Z" id="path-7"></path>
        <mask id="mask-8" maskContentUnits="userSpaceOnUse" maskUnits="objectBoundingBox" x="-2" y="-2" width="170.288621" height="299.772027">
            <rect x="9.08590807" y="38.5744235" width="170.288621" height="299.772027" fill="white"></rect>
            <use xlink:href="#path-7" fill="black"></use>
        </mask>
        <path d="M65.3882933,27.3699642 C67.1488262,27.3699642 68.5757397,25.9566938 68.5757397,24.2129939 C68.5757397,22.469294 67.1488262,21.0560236 65.3882933,21.0560236 C63.6277604,21.0560236 62.2008469,22.469294 62.2008469,24.2129939 C62.2008469,25.9566938 63.6277604,27.3699642 65.3882933,27.3699642 L65.3882933,27.3699642 Z" id="path-9"></path>
        <mask id="mask-10" maskContentUnits="userSpaceOnUse" maskUnits="objectBoundingBox" x="-2" y="-2" width="10.3748928" height="10.3139405">
            <rect x="60.2008469" y="19.0560236" width="10.3748928" height="10.3139405" fill="white"></rect>
            <use xlink:href="#path-9" fill="black"></use>
        </mask>
        <path d="M81.3170253,22.1083471 C80.148295,22.1083471 79.2005609,23.0428103 79.2005609,24.2129939 C79.2005609,25.3758113 80.1546699,26.3176408 81.3170253,26.3176408 L108.95856,26.3176408 C110.127291,26.3176408 111.075025,25.3831776 111.075025,24.2129939 C111.075025,23.0501765 110.120916,22.1083471 108.95856,22.1083471 L81.3170253,22.1083471 L81.3170253,22.1083471 Z" id="path-11"></path>
        <mask id="mask-12" maskContentUnits="userSpaceOnUse" maskUnits="objectBoundingBox" x="-2" y="-2" width="35.8744638" height="8.20929369">
            <rect x="77.2005609" y="20.1083471" width="35.8744638" height="8.20929369" fill="white"></rect>
            <use xlink:href="#path-11" fill="black"></use>
        </mask>
        <path d="M189.698702,110.296207 L189.698702,357.807937 C189.698702,372.916145 177.330348,385.159928 162.072042,385.159928 L28.2035437,385.159928 C12.9494878,385.159928 0.57688345,372.91404 0.57688345,357.807937 L0.57688345,27.3615456 C0.57688345,12.2533382 12.9452379,0.0095551942 28.2035437,0.0095551942 L162.072042,0.0095551942 C177.326098,0.0095551942 189.698702,12.2554429 189.698702,27.3615456 L189.698702,82.3001945 C189.440519,82.490665 189.273709,82.7947865 189.273709,83.1357393 L189.273709,109.458557 C189.273709,109.801615 189.439457,110.105736 189.698702,110.296207 L189.698702,110.296207 Z" id="path-13"></path>
        <mask id="mask-14" maskContentUnits="userSpaceOnUse" maskUnits="objectBoundingBox" x="-2" y="-2" width="193.121819" height="389.150373">
            <rect x="-1.42311655" y="-1.99044481" width="193.121819" height="389.150373" fill="white"></rect>
            <use xlink:href="#path-13" fill="black"></use>
        </mask>
        <path d="M0.177430842,82.6116822 L0.177430842,111.555838 M0.267360547,48.8805072 L0.267360547,63.7372093 M0.177430842,116.827978 L0.177430842,146.195168" id="path-15"></path>
        <mask id="mask-16" maskContentUnits="userSpaceOnUse" maskUnits="objectBoundingBox" x="-2" y="-2" width="5.15241183" height="101.314661">
            <rect x="-1.82256916" y="46.8805072" width="5.15241183" height="101.314661" fill="white"></rect>
            <use xlink:href="#path-15" fill="black"></use>
        </mask>
        <path d="M95.1377929,374.636694 C103.352905,374.636694 110.012543,368.04073 110.012543,359.904166 C110.012543,351.767601 103.352905,345.171638 95.1377929,345.171638 C86.922681,345.171638 80.2630431,351.767601 80.2630431,359.904166 C80.2630431,368.04073 86.922681,374.636694 95.1377929,374.636694 L95.1377929,374.636694 Z" id="path-17"></path>
        <mask id="mask-18" maskContentUnits="userSpaceOnUse" maskUnits="objectBoundingBox" x="-2" y="-2" width="33.7494996" height="33.4650558">
            <rect x="78.2630431" y="343.171638" width="33.7494996" height="33.4650558" fill="white"></rect>
            <use xlink:href="#path-17" fill="black"></use>
        </mask>
        <path d="M13.2188794,40.5744235 C12.0410017,40.5744235 11.0859081,41.530895 11.0859081,42.7022799 L11.0859081,334.218595 C11.0859081,335.394235 12.0420676,336.346451 13.2188794,336.346451 L175.241558,336.346451 C176.419436,336.346451 177.374529,335.38998 177.374529,334.218595 L177.374529,42.7022799 C177.374529,41.5266392 176.41837,40.5744235 175.241558,40.5744235 L13.2188794,40.5744235 L13.2188794,40.5744235 Z" id="path-19"></path>
        <mask id="mask-20" maskContentUnits="userSpaceOnUse" maskUnits="objectBoundingBox" x="-2" y="-2" width="170.288621" height="299.772027">
            <rect x="9.08590807" y="38.5744235" width="170.288621" height="299.772027" fill="white"></rect>
            <use xlink:href="#path-19" fill="black"></use>
        </mask>
        <path d="M65.3882933,27.3699642 C67.1488262,27.3699642 68.5757397,25.9566938 68.5757397,24.2129939 C68.5757397,22.469294 67.1488262,21.0560236 65.3882933,21.0560236 C63.6277604,21.0560236 62.2008469,22.469294 62.2008469,24.2129939 C62.2008469,25.9566938 63.6277604,27.3699642 65.3882933,27.3699642 L65.3882933,27.3699642 Z" id="path-21"></path>
        <mask id="mask-22" maskContentUnits="userSpaceOnUse" maskUnits="objectBoundingBox" x="-2" y="-2" width="10.3748928" height="10.3139405">
            <rect x="60.2008469" y="19.0560236" width="10.3748928" height="10.3139405" fill="white"></rect>
            <use xlink:href="#path-21" fill="black"></use>
        </mask>
        <path d="M81.3170253,22.1083471 C80.148295,22.1083471 79.2005609,23.0428103 79.2005609,24.2129939 C79.2005609,25.3758113 80.1546699,26.3176408 81.3170253,26.3176408 L108.95856,26.3176408 C110.127291,26.3176408 111.075025,25.3831776 111.075025,24.2129939 C111.075025,23.0501765 110.120916,22.1083471 108.95856,22.1083471 L81.3170253,22.1083471 L81.3170253,22.1083471 Z" id="path-23"></path>
        <mask id="mask-24" maskContentUnits="userSpaceOnUse" maskUnits="objectBoundingBox" x="-2" y="-2" width="35.8744638" height="8.20929369">
            <rect x="77.2005609" y="20.1083471" width="35.8744638" height="8.20929369" fill="white"></rect>
            <use xlink:href="#path-23" fill="black"></use>
        </mask>
        <path d="M189.698702,110.296207 L189.698702,357.807937 C189.698702,372.916145 177.330348,385.159928 162.072042,385.159928 L28.2035437,385.159928 C12.9494878,385.159928 0.57688345,372.91404 0.57688345,357.807937 L0.57688345,27.3615456 C0.57688345,12.2533382 12.9452379,0.0095551942 28.2035437,0.0095551942 L162.072042,0.0095551942 C177.326098,0.0095551942 189.698702,12.2554429 189.698702,27.3615456 L189.698702,82.3001945 C189.440519,82.490665 189.273709,82.7947865 189.273709,83.1357393 L189.273709,109.458557 C189.273709,109.801615 189.439457,110.105736 189.698702,110.296207 L189.698702,110.296207 Z" id="path-25"></path>
        <mask id="mask-26" maskContentUnits="userSpaceOnUse" maskUnits="objectBoundingBox" x="-2" y="-2" width="193.121819" height="389.150373">
            <rect x="-1.42311655" y="-1.99044481" width="193.121819" height="389.150373" fill="white"></rect>
            <use xlink:href="#path-25" fill="black"></use>
        </mask>
        <path d="M0.177430842,82.6116822 L0.177430842,111.555838 M0.267360547,48.8805072 L0.267360547,63.7372093 M0.177430842,116.827978 L0.177430842,146.195168" id="path-27"></path>
        <mask id="mask-28" maskContentUnits="userSpaceOnUse" maskUnits="objectBoundingBox" x="-2" y="-2" width="5.15241183" height="101.314661">
            <rect x="-1.82256916" y="46.8805072" width="5.15241183" height="101.314661" fill="white"></rect>
            <use xlink:href="#path-27" fill="black"></use>
        </mask>
        <path d="M13.2188794,40.5744235 C12.0410017,40.5744235 11.0859081,41.530895 11.0859081,42.7022799 L11.0859081,334.218595 C11.0859081,335.394235 12.0420676,336.346451 13.2188794,336.346451 L175.241558,336.346451 C176.419436,336.346451 177.374529,335.38998 177.374529,334.218595 L177.374529,42.7022799 C177.374529,41.5266392 176.41837,40.5744235 175.241558,40.5744235 L13.2188794,40.5744235 L13.2188794,40.5744235 Z" id="path-29"></path>
        <mask id="mask-31" maskContentUnits="userSpaceOnUse" maskUnits="objectBoundingBox" x="-2" y="-2" width="170.288621" height="299.772027">
            <rect x="9.08590807" y="38.5744235" width="170.288621" height="299.772027" fill="white"></rect>
            <use xlink:href="#path-29" fill="black"></use>
        </mask>
        <path d="M65.3882933,27.3699642 C67.1488262,27.3699642 68.5757397,25.9566938 68.5757397,24.2129939 C68.5757397,22.469294 67.1488262,21.0560236 65.3882933,21.0560236 C63.6277604,21.0560236 62.2008469,22.469294 62.2008469,24.2129939 C62.2008469,25.9566938 63.6277604,27.3699642 65.3882933,27.3699642 L65.3882933,27.3699642 Z" id="path-32"></path>
        <mask id="mask-33" maskContentUnits="userSpaceOnUse" maskUnits="objectBoundingBox" x="-2" y="-2" width="10.3748928" height="10.3139405">
            <rect x="60.2008469" y="19.0560236" width="10.3748928" height="10.3139405" fill="white"></rect>
            <use xlink:href="#path-32" fill="black"></use>
        </mask>
        <path d="M81.3170253,22.1083471 C80.148295,22.1083471 79.2005609,23.0428103 79.2005609,24.2129939 C79.2005609,25.3758113 80.1546699,26.3176408 81.3170253,26.3176408 L108.95856,26.3176408 C110.127291,26.3176408 111.075025,25.3831776 111.075025,24.2129939 C111.075025,23.0501765 110.120916,22.1083471 108.95856,22.1083471 L81.3170253,22.1083471 L81.3170253,22.1083471 Z" id="path-34"></path>
        <mask id="mask-35" maskContentUnits="userSpaceOnUse" maskUnits="objectBoundingBox" x="-2" y="-2" width="35.8744638" height="8.20929369">
            <rect x="77.2005609" y="20.1083471" width="35.8744638" height="8.20929369" fill="white"></rect>
            <use xlink:href="#path-34" fill="black"></use>
        </mask>
    </defs>
    <g id="Page-1" stroke="none" stroke-width="1" fill="none" fill-rule="evenodd">
        <g id="services-mobile-development">
            <g id="Group" transform="translate(800.000000, 33.000000)">
                <g id="1.1" transform="translate(207.528199, 0.000000)">
                    <g id="Phone">
                        <g id="Outerframe">
                            <use fill="#FFFFFF" fill-rule="evenodd" xlink:href="#path-1"></use>
                            <use stroke="#DCDCDC" mask="url(#mask-2)" stroke-width="4" stroke-linecap="square" xlink:href="#path-1"></use>
                        </g>
                        <g id="Buttons">
                            <use fill="#FFFFFF" fill-rule="evenodd" xlink:href="#path-3"></use>
                            <use stroke="#DCDCDC" mask="url(#mask-4)" stroke-width="4" stroke-linecap="square" xlink:href="#path-3"></use>
                        </g>
                        <g id="Button">
                            <use fill="#FFFFFF" fill-rule="evenodd" xlink:href="#path-5"></use>
                            <use stroke="#DCDCDC" mask="url(#mask-6)" stroke-width="4" stroke-linecap="square" xlink:href="#path-5"></use>
                        </g>
                        <g id="Screen">
                            <use fill="#FFFFFF" fill-rule="evenodd" xlink:href="#path-7"></use>
                            <use stroke="#DCDCDC" mask="url(#mask-8)" stroke-width="4" stroke-linecap="square" xlink:href="#path-7"></use>
                        </g>
                        <g id="Camera">
                            <use fill="#FFFFFF" fill-rule="evenodd" xlink:href="#path-9"></use>
                            <use stroke="#DCDCDC" mask="url(#mask-10)" stroke-width="4" stroke-linecap="square" xlink:href="#path-9"></use>
                        </g>
                        <g id="Earpiece">
                            <use fill="#FFFFFF" fill-rule="evenodd" xlink:href="#path-11"></use>
                            <use stroke="#DCDCDC" mask="url(#mask-12)" stroke-width="4" stroke-linecap="square" xlink:href="#path-11"></use>
                        </g>
                    </g>
                    <g id="Login" transform="translate(25.275870, 236.351560)">
                        <rect id="field" stroke="#DCDCDC" stroke-width="2" fill="#FFFFFF" x="0" y="0" width="139.682442" height="18.1808892" rx="4"></rect>
                        <rect id="field" stroke="#DCDCDC" stroke-width="2" fill="#FFFFFF" x="0" y="25.2758704" width="139.682442" height="18.1808892" rx="4"></rect>
                        <rect id="button" fill="#4D8FFF" opacity="0.5" x="0" y="50.5517408" width="139.682442" height="18.1808892" rx="4"></rect>
                        <rect id="login" fill="#FFFFFF" x="50.9951771" y="57.4250038" width="37.6920874" height="4.43436323" rx="2.21718161"></rect>
                        <rect id="password" fill="#D8D8D8" x="5.98639036" y="32.1491334" width="26.6061794" height="4.43436323" rx="2.21718161"></rect>
                        <rect id="username" fill="#D8D8D8" x="5.98639036" y="6.873263" width="26.6061794" height="4.43436323" rx="2.21718161"></rect>
                    </g>
                </g>
                <g id="Main" transform="translate(419.490761, 0.886873)">
                    <g id="Phone" transform="translate(-0.000000, 0.000000)">
                        <g id="Outerframe">
                            <use fill="#FFFFFF" fill-rule="evenodd" xlink:href="#path-13"></use>
                            <use stroke="#DCDCDC" mask="url(#mask-14)" stroke-width="4" stroke-linecap="square" xlink:href="#path-13"></use>
                        </g>
                        <g id="Buttons">
                            <use fill="#FFFFFF" fill-rule="evenodd" xlink:href="#path-15"></use>
                            <use stroke="#DCDCDC" mask="url(#mask-16)" stroke-width="4" stroke-linecap="square" xlink:href="#path-15"></use>
                        </g>
                        <g id="Button">
                            <use fill="#FFFFFF" fill-rule="evenodd" xlink:href="#path-17"></use>
                            <use stroke="#DCDCDC" mask="url(#mask-18)" stroke-width="4" stroke-linecap="square" xlink:href="#path-17"></use>
                        </g>
                        <g id="Screen">
                            <use fill="#FFFFFF" fill-rule="evenodd" xlink:href="#path-19"></use>
                            <use stroke="#DCDCDC" mask="url(#mask-20)" stroke-width="4" stroke-linecap="square" xlink:href="#path-19"></use>
                        </g>
                        <g id="Camera">
                            <use fill="#FFFFFF" fill-rule="evenodd" xlink:href="#path-21"></use>
                            <use stroke="#DCDCDC" mask="url(#mask-22)" stroke-width="4" stroke-linecap="square" xlink:href="#path-21"></use>
                        </g>
                        <g id="Earpiece">
                            <use fill="#FFFFFF" fill-rule="evenodd" xlink:href="#path-23"></use>
                            <use stroke="#DCDCDC" mask="url(#mask-24)" stroke-width="4" stroke-linecap="square" xlink:href="#path-23"></use>
                        </g>
                    </g>
                    <g id="Form" transform="translate(25.054152, 286.016428)">
                        <rect id="button" fill="#4D8FFF" x="0" y="1.13686838e-13" width="139.682442" height="18.1808892" rx="4"></rect>
                        <rect id="Next" fill="#FFFFFF" x="50.9951771" y="6.873263" width="37.6920874" height="4.43436323" rx="2.21718161"></rect>
                    </g>
                </g>
                <g id="Menu" transform="translate(0.000000, 256.527913)">
                    <g id="Phone">
                        <g id="Outerframe">
                            <use fill="#FFFFFF" fill-rule="evenodd" xlink:href="#path-25"></use>
                            <use stroke="#DCDCDC" mask="url(#mask-26)" stroke-width="4" stroke-linecap="square" xlink:href="#path-25"></use>
                        </g>
                        <g id="Buttons">
                            <use fill="#FFFFFF" fill-rule="evenodd" xlink:href="#path-27"></use>
                            <use stroke="#DCDCDC" mask="url(#mask-28)" stroke-width="4" stroke-linecap="square" xlink:href="#path-27"></use>
                        </g>
                        <mask id="mask-30" fill="white">
                            <use xlink:href="#path-29"></use>
                        </mask>
                        <g id="Screen">
                            <use fill="#FFFFFF" fill-rule="evenodd" xlink:href="#path-29"></use>
                            <use stroke="#DCDCDC" mask="url(#mask-31)" stroke-width="4" stroke-linecap="square" xlink:href="#path-29"></use>
                        </g>
                        <g id="Camera" mask="url(#mask-30)">
                            <use fill="#FFFFFF" fill-rule="evenodd" xlink:href="#path-32"></use>
                            <use stroke="#AEAEAE" mask="url(#mask-33)" stroke-width="4" stroke-linecap="square" xlink:href="#path-32"></use>
                        </g>
                        <g id="Earpiece" mask="url(#mask-30)">
                            <use fill="#FFFFFF" fill-rule="evenodd" xlink:href="#path-34"></use>
                            <use stroke="#AEAEAE" mask="url(#mask-35)" stroke-width="4" stroke-linecap="square" xlink:href="#path-34"></use>
                        </g>
                    </g>
                    <path d="M26.4253946,59.2994776 C28.0425143,59.6379181 29.3534832,59.8082187 29.6268846,59.6362395 C30.4136754,59.1413202 28.8914192,56.2627678 28.8914192,56.2627678 L29.6855202,53.2991422 C30.1624621,51.519171 29.2644838,49.6846344 27.6321078,48.8654064 C27.7184742,48.7705267 27.783766,48.6548369 27.8190021,48.5233342 C27.9401859,48.0710701 27.659977,47.6030329 27.193138,47.4779437 C26.726299,47.3528546 26.2496123,47.6180823 26.1284285,48.0703464 C26.0948232,48.1957633 26.092085,48.3223932 26.1156343,48.4425862 C24.2610923,48.2958611 22.5218392,49.4430329 22.0376875,51.2499116 L21.2435864,54.2135372 C21.2435864,54.2135372 18.3793075,55.7431978 18.9199188,56.7673167 C19.262117,57.4155673 23.1458045,58.5909391 26.150006,59.2408604 C25.2902091,59.1028665 24.1010688,59.2829928 24.1010688,59.7812391 C24.1010688,60.5616028 24.7540654,61.1942126 25.5595775,61.1942126 C26.3650897,61.1942126 27.0180863,60.5616028 27.0180863,59.7812391 C27.0180863,59.5551471 26.7732278,59.3945599 26.4253946,59.2994776 Z" id="Oval-3" fill="#DCDCDC"></path>
                    <path d="M163.517092,56.8337554 C162.201253,56.8337554 161.135227,55.7090235 161.135227,54.3209496 C161.135227,52.9328756 162.201253,51.8081437 163.517092,51.8081437 C164.83293,51.8081437 165.899437,52.9328756 165.899437,54.3209496 C165.899437,55.7090235 164.83293,56.8337554 163.517092,56.8337554 L163.517092,56.8337554 Z M170.246652,56.0980058 L169.130664,55.4185431 C169.193117,55.0617247 169.234432,54.6973679 169.234432,54.3209496 C169.234432,53.9450338 169.193117,53.5801744 169.130664,53.223356 L170.246652,52.5438933 C170.70256,52.2664795 170.858212,51.6513446 170.594949,51.1708962 L169.642299,49.4300243 C169.379515,48.9495758 168.7963,48.7842332 168.340872,49.0621495 L167.213354,49.7481455 C166.686826,49.275738 166.088237,48.8892685 165.422872,48.6405007 L165.422872,47.7876544 C165.422872,47.2328269 164.996269,46.7825321 164.469741,46.7825321 L162.564442,46.7825321 C162.037914,46.7825321 161.611311,47.2328269 161.611311,47.7876544 L161.611311,48.6405007 C160.945946,48.8892685 160.347357,49.275738 159.820829,49.7481455 L158.693311,49.0621495 C158.237884,48.7842332 157.654668,48.9495758 157.391885,49.4300243 L156.439235,51.1708962 C156.175971,51.6513446 156.332104,52.2664795 156.787531,52.5438933 L157.903519,53.223356 C157.841066,53.5801744 157.799751,53.9450338 157.799751,54.3209496 C157.799751,54.6973679 157.841066,55.0617247 157.903519,55.4185431 L156.787531,56.0980058 C156.332104,56.3754196 156.175971,56.9905545 156.439235,57.4710029 L157.391885,59.2118748 C157.654668,59.6923233 158.237884,59.8576659 158.693311,59.5797496 L159.820829,58.8937536 C160.347357,59.3661611 160.945946,59.7531332 161.611311,60.0013984 L161.611311,60.8542447 C161.611311,61.4090722 162.037914,61.859367 162.564442,61.859367 L164.469741,61.859367 C164.996269,61.859367 165.422872,61.4090722 165.422872,60.8542447 L165.422872,60.0013984 C166.088237,59.7531332 166.686826,59.3661611 167.213354,58.8937536 L168.340872,59.5797496 C168.7963,59.8576659 169.379515,59.6923233 169.642299,59.2118748 L170.594949,57.4710029 C170.858212,56.9905545 170.70256,56.3754196 170.246652,56.0980058 L170.246652,56.0980058 Z M163.517092,52.8132661 C162.727781,52.8132661 162.087877,53.4887083 162.087877,54.3209496 C162.087877,55.1536934 162.727781,55.8286331 163.517092,55.8286331 C164.306403,55.8286331 164.946307,55.1536934 164.946307,54.3209496 C164.946307,53.4887083 164.306403,52.8132661 163.517092,52.8132661 L163.517092,52.8132661 Z" id="Fill-171" fill="#DCDCDC"></path>
                </g>
                <g id="Long-Curve" transform="translate(160.523949, 128.707393)">
                    <path d="M92.9085705,3.65834966 L25.6448233,3.65834966 C25.6448233,3.65834966 15.2045827,3.65834966 9.604467,9.48451401 C4.00435125,15.3106784 3.54749058,25.3577156 3.54749058,25.3577156 L3.54749058,53.1014997 L3.54749058,157.558747" id="Line" stroke="#DCDCDC" stroke-width="2" stroke-linecap="square"></path>
                    <path d="M92.6781915,7.20584025 C90.7182029,7.20584025 89.1307009,5.61612103 89.1307009,3.65834966 C89.1307009,1.69836112 90.7182029,0.110859081 92.6781915,0.110859081 C94.63818,0.110859081 96.2256821,1.69836112 96.2256821,3.65834966 C96.2256821,5.61612103 94.63818,7.20584025 92.6781915,7.20584025 Z" id="Fill-561" fill="#DCDCDC"></path>
                    <path d="M3.54749058,161.106238 C1.58750204,161.106238 0,159.516518 0,157.558747 C0,155.598758 1.58750204,154.011256 3.54749058,154.011256 C5.50747913,154.011256 7.09498117,155.598758 7.09498117,157.558747 C7.09498117,159.516518 5.50747913,161.106238 3.54749058,161.106238 Z" id="Fill-561" fill="#DCDCDC"></path>
                </g>
                <g id="Long-Curve" transform="translate(381.796245, 219.297021) scale(-1, 1) rotate(90.000000) translate(-381.796245, -219.297021) translate(352.296245, 138.297021)">
                    <path d="M51.4386135,3.65834966 L25.6448233,3.65834966 C25.6448233,3.65834966 15.2045827,3.65834966 9.604467,9.48451401 C4.00435125,15.3106784 3.54749058,25.3577156 3.54749058,25.3577156 L3.54749058,53.1014997 L3.54749058,157.558747" id="Line" stroke="#DCDCDC" stroke-width="2" stroke-linecap="square"></path>
                    <path d="M55.4295404,7.20584025 C53.4695518,7.20584025 51.8820498,5.61612103 51.8820498,3.65834966 C51.8820498,1.69836112 53.4695518,0.110859081 55.4295404,0.110859081 C57.3895289,0.110859081 58.9770309,1.69836112 58.9770309,3.65834966 C58.9770309,5.61612103 57.3895289,7.20584025 55.4295404,7.20584025 Z" id="Fill-561" fill="#DCDCDC"></path>
                    <path d="M3.54749058,161.106238 C1.58750204,161.106238 0,159.516518 0,157.558747 C0,155.598758 1.58750204,154.011256 3.54749058,154.011256 C5.50747913,154.011256 7.09498117,155.598758 7.09498117,157.558747 C7.09498117,159.516518 5.50747913,161.106238 3.54749058,161.106238 Z" id="Fill-561" fill="#DCDCDC"></path>
                </g>
            </g>
        </g>
    </g>
</svg>