<?xml version="1.0" encoding="UTF-8"?>
<svg width="1440px" height="600px" viewBox="0 0 1440 600" version="1.1" xmlns="http://www.w3.org/2000/svg" xmlns:xlink="http://www.w3.org/1999/xlink">
    <!-- Generator: Sketch 42 (36781) - http://www.bohemiancoding.com/sketch -->
    <title>services-mobile-development</title>
    <desc>Created with Sketch.</desc>
    <defs>
        <path d="M164.820184,95.8311305 L164.820184,310.882306 C164.820184,324.009109 154.073909,334.64715 140.816692,334.64715 L24.5047183,334.64715 C11.2511943,334.64715 0.501226604,324.007281 0.501226604,310.882306 L0.501226604,23.7731462 C0.501226604,10.646343 11.2475018,0.00830205398 24.5047183,0.00830205398 L140.816692,0.00830205398 C154.070216,0.00830205398 164.820184,10.6481717 164.820184,23.7731462 L164.820184,71.5067264 C164.595861,71.6722172 164.450928,71.9364538 164.450928,72.2326915 L164.450928,95.1033367 C164.450928,95.401403 164.594938,95.6656397 164.820184,95.8311305 L164.820184,95.8311305 Z" id="path-1"></path>
        <mask id="mask-2" maskContentUnits="userSpaceOnUse" maskUnits="objectBoundingBox" x="-2" y="-2" width="168.318957" height="338.638848">
            <rect x="-1.4987734" y="-1.99169795" width="168.318957" height="338.638848" fill="white"></rect>
            <use xlink:href="#path-1" fill="black"></use>
        </mask>
        <path d="M0.154161223,71.7773632 L0.154161223,96.9255641 M0.232296869,42.4699489 L0.232296869,55.3782311 M0.154161223,101.506276 L0.154161223,127.022031" id="path-3"></path>
        <mask id="mask-4" maskContentUnits="userSpaceOnUse" maskUnits="objectBoundingBox" x="-2" y="-2" width="5.00127586" height="88.5520823">
            <rect x="-1.84583878" y="40.4699489" width="5.00127586" height="88.5520823" fill="white"></rect>
            <use xlink:href="#path-3" fill="black"></use>
        </mask>
        <path d="M82.6607053,325.504012 C89.7984254,325.504012 95.5846682,319.773094 95.5846682,312.703619 C95.5846682,305.634145 89.7984254,299.903226 82.6607053,299.903226 C75.5229852,299.903226 69.7367423,305.634145 69.7367423,312.703619 C69.7367423,319.773094 75.5229852,325.504012 82.6607053,325.504012 L82.6607053,325.504012 Z" id="path-5"></path>
        <mask id="mask-6" maskContentUnits="userSpaceOnUse" maskUnits="objectBoundingBox" x="-2" y="-2" width="29.8479259" height="29.6007862">
            <rect x="67.7367423" y="297.903226" width="29.8479259" height="29.6007862" fill="white"></rect>
            <use xlink:href="#path-5" fill="black"></use>
        </mask>
        <path d="M11.4852559,35.2531877 C10.4618539,35.2531877 9.63201849,36.0842202 9.63201849,37.1019809 L9.63201849,290.386648 C9.63201849,291.408106 10.4627801,292.235441 11.4852559,292.235441 L152.259058,292.235441 C153.28246,292.235441 154.112296,291.404408 154.112296,290.386648 L154.112296,37.1019809 C154.112296,36.0805226 153.281534,35.2531877 152.259058,35.2531877 L11.4852559,35.2531877 L11.4852559,35.2531877 Z" id="path-7"></path>
        <mask id="mask-8" maskContentUnits="userSpaceOnUse" maskUnits="objectBoundingBox" x="-2" y="-2" width="148.480277" height="260.982253">
            <rect x="7.63201849" y="33.2531877" width="148.480277" height="260.982253" fill="white"></rect>
            <use xlink:href="#path-7" fill="black"></use>
        </mask>
        <path d="M56.8127794,23.7804607 C58.3424227,23.7804607 59.5822,22.5525373 59.5822,21.0375193 C59.5822,19.5225013 58.3424227,18.2945779 56.8127794,18.2945779 C55.2831361,18.2945779 54.0433588,19.5225013 54.0433588,21.0375193 C54.0433588,22.5525373 55.2831361,23.7804607 56.8127794,23.7804607 L56.8127794,23.7804607 Z" id="path-9"></path>
        <mask id="mask-10" maskContentUnits="userSpaceOnUse" maskUnits="objectBoundingBox" x="-2" y="-2" width="9.53884126" height="9.48588276">
            <rect x="52.0433588" y="16.2945779" width="9.53884126" height="9.48588276" fill="white"></rect>
            <use xlink:href="#path-9" fill="black"></use>
        </mask>
        <path d="M70.6524974,19.2088917 C69.6370432,19.2088917 68.8136021,20.0208024 68.8136021,21.0375193 C68.8136021,22.047836 69.642582,22.8661469 70.6524974,22.8661469 L94.6689131,22.8661469 C95.6843673,22.8661469 96.5078084,22.0542362 96.5078084,21.0375193 C96.5078084,20.0272026 95.6788285,19.2088917 94.6689131,19.2088917 L70.6524974,19.2088917 L70.6524974,19.2088917 Z" id="path-11"></path>
        <mask id="mask-12" maskContentUnits="userSpaceOnUse" maskUnits="objectBoundingBox" x="-2" y="-2" width="31.6942063" height="7.65725517">
            <rect x="66.8136021" y="17.2088917" width="31.6942063" height="7.65725517" fill="white"></rect>
            <use xlink:href="#path-11" fill="black"></use>
        </mask>
        <path d="M164.820184,95.8311305 L164.820184,310.882306 C164.820184,324.009109 154.073909,334.64715 140.816692,334.64715 L24.5047183,334.64715 C11.2511943,334.64715 0.501226604,324.007281 0.501226604,310.882306 L0.501226604,23.7731462 C0.501226604,10.646343 11.2475018,0.00830205398 24.5047183,0.00830205398 L140.816692,0.00830205398 C154.070216,0.00830205398 164.820184,10.6481717 164.820184,23.7731462 L164.820184,71.5067264 C164.595861,71.6722172 164.450928,71.9364538 164.450928,72.2326915 L164.450928,95.1033367 C164.450928,95.401403 164.594938,95.6656397 164.820184,95.8311305 L164.820184,95.8311305 Z" id="path-13"></path>
        <mask id="mask-14" maskContentUnits="userSpaceOnUse" maskUnits="objectBoundingBox" x="-2" y="-2" width="168.318957" height="338.638848">
            <rect x="-1.4987734" y="-1.99169795" width="168.318957" height="338.638848" fill="white"></rect>
            <use xlink:href="#path-13" fill="black"></use>
        </mask>
        <path d="M0.154161223,71.7773632 L0.154161223,96.9255641 M0.232296869,42.4699489 L0.232296869,55.3782311 M0.154161223,101.506276 L0.154161223,127.022031" id="path-15"></path>
        <mask id="mask-16" maskContentUnits="userSpaceOnUse" maskUnits="objectBoundingBox" x="-2" y="-2" width="5.00127586" height="88.5520823">
            <rect x="-1.84583878" y="40.4699489" width="5.00127586" height="88.5520823" fill="white"></rect>
            <use xlink:href="#path-15" fill="black"></use>
        </mask>
        <path d="M82.6607053,325.504012 C89.7984254,325.504012 95.5846682,319.773094 95.5846682,312.703619 C95.5846682,305.634145 89.7984254,299.903226 82.6607053,299.903226 C75.5229852,299.903226 69.7367423,305.634145 69.7367423,312.703619 C69.7367423,319.773094 75.5229852,325.504012 82.6607053,325.504012 L82.6607053,325.504012 Z" id="path-17"></path>
        <mask id="mask-18" maskContentUnits="userSpaceOnUse" maskUnits="objectBoundingBox" x="-2" y="-2" width="29.8479259" height="29.6007862">
            <rect x="67.7367423" y="297.903226" width="29.8479259" height="29.6007862" fill="white"></rect>
            <use xlink:href="#path-17" fill="black"></use>
        </mask>
        <path d="M11.4852559,35.2531877 C10.4618539,35.2531877 9.63201849,36.0842202 9.63201849,37.1019809 L9.63201849,290.386648 C9.63201849,291.408106 10.4627801,292.235441 11.4852559,292.235441 L152.259058,292.235441 C153.28246,292.235441 154.112296,291.404408 154.112296,290.386648 L154.112296,37.1019809 C154.112296,36.0805226 153.281534,35.2531877 152.259058,35.2531877 L11.4852559,35.2531877 L11.4852559,35.2531877 Z" id="path-19"></path>
        <mask id="mask-20" maskContentUnits="userSpaceOnUse" maskUnits="objectBoundingBox" x="-2" y="-2" width="148.480277" height="260.982253">
            <rect x="7.63201849" y="33.2531877" width="148.480277" height="260.982253" fill="white"></rect>
            <use xlink:href="#path-19" fill="black"></use>
        </mask>
        <path d="M56.8127794,23.7804607 C58.3424227,23.7804607 59.5822,22.5525373 59.5822,21.0375193 C59.5822,19.5225013 58.3424227,18.2945779 56.8127794,18.2945779 C55.2831361,18.2945779 54.0433588,19.5225013 54.0433588,21.0375193 C54.0433588,22.5525373 55.2831361,23.7804607 56.8127794,23.7804607 L56.8127794,23.7804607 Z" id="path-21"></path>
        <mask id="mask-22" maskContentUnits="userSpaceOnUse" maskUnits="objectBoundingBox" x="-2" y="-2" width="9.53884126" height="9.48588276">
            <rect x="52.0433588" y="16.2945779" width="9.53884126" height="9.48588276" fill="white"></rect>
            <use xlink:href="#path-21" fill="black"></use>
        </mask>
        <path d="M70.6524974,19.2088917 C69.6370432,19.2088917 68.8136021,20.0208024 68.8136021,21.0375193 C68.8136021,22.047836 69.642582,22.8661469 70.6524974,22.8661469 L94.6689131,22.8661469 C95.6843673,22.8661469 96.5078084,22.0542362 96.5078084,21.0375193 C96.5078084,20.0272026 95.6788285,19.2088917 94.6689131,19.2088917 L70.6524974,19.2088917 L70.6524974,19.2088917 Z" id="path-23"></path>
        <mask id="mask-24" maskContentUnits="userSpaceOnUse" maskUnits="objectBoundingBox" x="-2" y="-2" width="31.6942063" height="7.65725517">
            <rect x="66.8136021" y="17.2088917" width="31.6942063" height="7.65725517" fill="white"></rect>
            <use xlink:href="#path-23" fill="black"></use>
        </mask>
        <path d="M164.820184,95.8311305 L164.820184,310.882306 C164.820184,324.009109 154.073909,334.64715 140.816692,334.64715 L24.5047183,334.64715 C11.2511943,334.64715 0.501226604,324.007281 0.501226604,310.882306 L0.501226604,23.7731462 C0.501226604,10.646343 11.2475018,0.00830205398 24.5047183,0.00830205398 L140.816692,0.00830205398 C154.070216,0.00830205398 164.820184,10.6481717 164.820184,23.7731462 L164.820184,71.5067264 C164.595861,71.6722172 164.450928,71.9364538 164.450928,72.2326915 L164.450928,95.1033367 C164.450928,95.401403 164.594938,95.6656397 164.820184,95.8311305 L164.820184,95.8311305 Z" id="path-25"></path>
        <mask id="mask-26" maskContentUnits="userSpaceOnUse" maskUnits="objectBoundingBox" x="-2" y="-2" width="168.318957" height="338.638848">
            <rect x="-1.4987734" y="-1.99169795" width="168.318957" height="338.638848" fill="white"></rect>
            <use xlink:href="#path-25" fill="black"></use>
        </mask>
        <path d="M0.154161223,71.7773632 L0.154161223,96.9255641 M0.232296869,42.4699489 L0.232296869,55.3782311 M0.154161223,101.506276 L0.154161223,127.022031" id="path-27"></path>
        <mask id="mask-28" maskContentUnits="userSpaceOnUse" maskUnits="objectBoundingBox" x="-2" y="-2" width="5.00127586" height="88.5520823">
            <rect x="-1.84583878" y="40.4699489" width="5.00127586" height="88.5520823" fill="white"></rect>
            <use xlink:href="#path-27" fill="black"></use>
        </mask>
        <path d="M82.6607053,325.504012 C89.7984254,325.504012 95.5846682,319.773094 95.5846682,312.703619 C95.5846682,305.634145 89.7984254,299.903226 82.6607053,299.903226 C75.5229852,299.903226 69.7367423,305.634145 69.7367423,312.703619 C69.7367423,319.773094 75.5229852,325.504012 82.6607053,325.504012 L82.6607053,325.504012 Z" id="path-29"></path>
        <mask id="mask-30" maskContentUnits="userSpaceOnUse" maskUnits="objectBoundingBox" x="-2" y="-2" width="29.8479259" height="29.6007862">
            <rect x="67.7367423" y="297.903226" width="29.8479259" height="29.6007862" fill="white"></rect>
            <use xlink:href="#path-29" fill="black"></use>
        </mask>
        <path d="M11.4852559,35.2531877 C10.4618539,35.2531877 9.63201849,36.0842202 9.63201849,37.1019809 L9.63201849,290.386648 C9.63201849,291.408106 10.4627801,292.235441 11.4852559,292.235441 L152.259058,292.235441 C153.28246,292.235441 154.112296,291.404408 154.112296,290.386648 L154.112296,37.1019809 C154.112296,36.0805226 153.281534,35.2531877 152.259058,35.2531877 L11.4852559,35.2531877 L11.4852559,35.2531877 Z" id="path-31"></path>
        <mask id="mask-33" maskContentUnits="userSpaceOnUse" maskUnits="objectBoundingBox" x="-2" y="-2" width="148.480277" height="260.982253">
            <rect x="7.63201849" y="33.2531877" width="148.480277" height="260.982253" fill="white"></rect>
            <use xlink:href="#path-31" fill="black"></use>
        </mask>
        <path d="M56.8127794,23.7804607 C58.3424227,23.7804607 59.5822,22.5525373 59.5822,21.0375193 C59.5822,19.5225013 58.3424227,18.2945779 56.8127794,18.2945779 C55.2831361,18.2945779 54.0433588,19.5225013 54.0433588,21.0375193 C54.0433588,22.5525373 55.2831361,23.7804607 56.8127794,23.7804607 L56.8127794,23.7804607 Z" id="path-34"></path>
        <mask id="mask-35" maskContentUnits="userSpaceOnUse" maskUnits="objectBoundingBox" x="-2" y="-2" width="9.53884126" height="9.48588276">
            <rect x="52.0433588" y="16.2945779" width="9.53884126" height="9.48588276" fill="white"></rect>
            <use xlink:href="#path-34" fill="black"></use>
        </mask>
        <path d="M70.6524974,19.2088917 C69.6370432,19.2088917 68.8136021,20.0208024 68.8136021,21.0375193 C68.8136021,22.047836 69.642582,22.8661469 70.6524974,22.8661469 L94.6689131,22.8661469 C95.6843673,22.8661469 96.5078084,22.0542362 96.5078084,21.0375193 C96.5078084,20.0272026 95.6788285,19.2088917 94.6689131,19.2088917 L70.6524974,19.2088917 L70.6524974,19.2088917 Z" id="path-36"></path>
        <mask id="mask-37" maskContentUnits="userSpaceOnUse" maskUnits="objectBoundingBox" x="-2" y="-2" width="31.6942063" height="7.65725517">
            <rect x="66.8136021" y="17.2088917" width="31.6942063" height="7.65725517" fill="white"></rect>
            <use xlink:href="#path-36" fill="black"></use>
        </mask>
    </defs>
    <g id="Page-1" stroke="none" stroke-width="1" fill="none" fill-rule="evenodd">
        <g id="services-mobile-development">
            <g id="Group" transform="translate(880.000000, 21.000000)">
                <g id="1.1" transform="translate(180.311386, 0.000000)">
                    <g id="Phone">
                        <g id="Outerframe">
                            <use fill="#FFFFFF" fill-rule="evenodd" xlink:href="#path-1"></use>
                            <use stroke="#DCDCDC" mask="url(#mask-2)" stroke-width="4" stroke-linecap="square" xlink:href="#path-1"></use>
                        </g>
                        <g id="Buttons">
                            <use fill="#FFFFFF" fill-rule="evenodd" xlink:href="#path-3"></use>
                            <use stroke="#DCDCDC" mask="url(#mask-4)" stroke-width="4" stroke-linecap="square" xlink:href="#path-3"></use>
                        </g>
                        <g id="Button">
                            <use fill="#FFFFFF" fill-rule="evenodd" xlink:href="#path-5"></use>
                            <use stroke="#DCDCDC" mask="url(#mask-6)" stroke-width="4" stroke-linecap="square" xlink:href="#path-5"></use>
                        </g>
                        <g id="Screen">
                            <use fill="#FFFFFF" fill-rule="evenodd" xlink:href="#path-7"></use>
                            <use stroke="#DCDCDC" mask="url(#mask-8)" stroke-width="4" stroke-linecap="square" xlink:href="#path-7"></use>
                        </g>
                        <g id="Camera">
                            <use fill="#FFFFFF" fill-rule="evenodd" xlink:href="#path-9"></use>
                            <use stroke="#DCDCDC" mask="url(#mask-10)" stroke-width="4" stroke-linecap="square" xlink:href="#path-9"></use>
                        </g>
                        <g id="Earpiece">
                            <use fill="#FFFFFF" fill-rule="evenodd" xlink:href="#path-11"></use>
                            <use stroke="#DCDCDC" mask="url(#mask-12)" stroke-width="4" stroke-linecap="square" xlink:href="#path-11"></use>
                        </g>
                    </g>
                    <g id="Login" transform="translate(21.961002, 205.354634)">
                        <rect id="field" stroke="#DCDCDC" stroke-width="2" fill="#FFFFFF" x="0" y="0" width="121.363433" height="15.7965103" rx="4"></rect>
                        <rect id="field" stroke="#DCDCDC" stroke-width="2" fill="#FFFFFF" x="0" y="21.9610022" width="121.363433" height="15.7965103" rx="4"></rect>
                        <rect id="button" fill="#4D8FFF" opacity="0.5" x="0" y="43.9220043" width="121.363433" height="15.7965103" rx="4"></rect>
                        <rect id="login" fill="#FFFFFF" x="44.307285" y="49.8938558" width="32.7488629" height="3.8528074" rx="1.9264037"></rect>
                        <rect id="password" fill="#D8D8D8" x="5.20128998" y="27.9328536" width="23.1168444" height="3.8528074" rx="1.9264037"></rect>
                        <rect id="username" fill="#D8D8D8" x="5.20128998" y="5.97185146" width="23.1168444" height="3.8528074" rx="1.9264037"></rect>
                    </g>
                </g>
                <g id="Main" transform="translate(364.475580, 0.770561)">
                    <g id="Phone" transform="translate(-0.000000, 0.000000)">
                        <g id="Outerframe">
                            <use fill="#FFFFFF" fill-rule="evenodd" xlink:href="#path-13"></use>
                            <use stroke="#DCDCDC" mask="url(#mask-14)" stroke-width="4" stroke-linecap="square" xlink:href="#path-13"></use>
                        </g>
                        <g id="Buttons">
                            <use fill="#FFFFFF" fill-rule="evenodd" xlink:href="#path-15"></use>
                            <use stroke="#DCDCDC" mask="url(#mask-16)" stroke-width="4" stroke-linecap="square" xlink:href="#path-15"></use>
                        </g>
                        <g id="Button">
                            <use fill="#FFFFFF" fill-rule="evenodd" xlink:href="#path-17"></use>
                            <use stroke="#DCDCDC" mask="url(#mask-18)" stroke-width="4" stroke-linecap="square" xlink:href="#path-17"></use>
                        </g>
                        <g id="Screen">
                            <use fill="#FFFFFF" fill-rule="evenodd" xlink:href="#path-19"></use>
                            <use stroke="#DCDCDC" mask="url(#mask-20)" stroke-width="4" stroke-linecap="square" xlink:href="#path-19"></use>
                        </g>
                        <g id="Camera">
                            <use fill="#FFFFFF" fill-rule="evenodd" xlink:href="#path-21"></use>
                            <use stroke="#DCDCDC" mask="url(#mask-22)" stroke-width="4" stroke-linecap="square" xlink:href="#path-21"></use>
                        </g>
                        <g id="Earpiece">
                            <use fill="#FFFFFF" fill-rule="evenodd" xlink:href="#path-23"></use>
                            <use stroke="#DCDCDC" mask="url(#mask-24)" stroke-width="4" stroke-linecap="square" xlink:href="#path-23"></use>
                        </g>
                    </g>
                    <g id="Form" transform="translate(21.768362, 248.506077)">
                        <rect id="button" fill="#4D8FFF" x="0" y="1.08804054e-13" width="121.363433" height="15.7965103" rx="4"></rect>
                        <rect id="Next" fill="#FFFFFF" x="44.307285" y="5.97185146" width="32.7488629" height="3.8528074" rx="1.9264037"></rect>
                    </g>
                </g>
                <g id="Menu" transform="translate(0.000000, 222.884908)">
                    <g id="Phone">
                        <g id="Outerframe">
                            <use fill="#FFFFFF" fill-rule="evenodd" xlink:href="#path-25"></use>
                            <use stroke="#DCDCDC" mask="url(#mask-26)" stroke-width="4" stroke-linecap="square" xlink:href="#path-25"></use>
                        </g>
                        <g id="Buttons">
                            <use fill="#FFFFFF" fill-rule="evenodd" xlink:href="#path-27"></use>
                            <use stroke="#DCDCDC" mask="url(#mask-28)" stroke-width="4" stroke-linecap="square" xlink:href="#path-27"></use>
                        </g>
                        <g id="Button">
                            <use fill="#FFFFFF" fill-rule="evenodd" xlink:href="#path-29"></use>
                            <use stroke="#AEAEAE" mask="url(#mask-30)" stroke-width="4" stroke-linecap="square" xlink:href="#path-29"></use>
                        </g>
                        <mask id="mask-32" fill="white">
                            <use xlink:href="#path-31"></use>
                        </mask>
                        <g id="Screen">
                            <use fill="#FFFFFF" fill-rule="evenodd" xlink:href="#path-31"></use>
                            <use stroke="#DCDCDC" mask="url(#mask-33)" stroke-width="4" stroke-linecap="square" xlink:href="#path-31"></use>
                        </g>
                        <g id="Camera" mask="url(#mask-32)">
                            <use fill="#FFFFFF" fill-rule="evenodd" xlink:href="#path-34"></use>
                            <use stroke="#AEAEAE" mask="url(#mask-35)" stroke-width="4" stroke-linecap="square" xlink:href="#path-34"></use>
                        </g>
                        <g id="Earpiece" mask="url(#mask-32)">
                            <use fill="#FFFFFF" fill-rule="evenodd" xlink:href="#path-36"></use>
                            <use stroke="#AEAEAE" mask="url(#mask-37)" stroke-width="4" stroke-linecap="square" xlink:href="#path-36"></use>
                        </g>
                    </g>
                    <path d="M22.9597691,51.5224969 C24.3648075,51.8165518 25.503846,51.9645179 25.7413915,51.8150934 C26.4249967,51.3850815 25.1023806,48.8840441 25.1023806,48.8840441 L25.7923373,46.3090907 C26.2067293,44.7625584 25.4265187,43.1686168 24.0082249,42.4568285 C24.0832645,42.374392 24.1399934,42.2738747 24.1706084,42.1596182 C24.2758992,41.7666675 24.032439,41.3600122 23.6268248,41.2513282 C23.2212106,41.1426442 22.8070402,41.3730879 22.7017494,41.7660387 C22.6725513,41.8750074 22.6701722,41.9850301 22.690633,42.0894602 C21.0793097,41.9619777 19.5681554,42.9587007 19.147499,44.5286117 L18.4575423,47.1035651 C18.4575423,47.1035651 15.9689065,48.4326144 16.438618,49.3224227 C16.7359377,49.8856569 20.1102891,50.9068815 22.720497,51.4715673 C21.9734603,51.3516709 20.9402729,51.508174 20.9402729,51.9410766 C20.9402729,52.6190975 21.5076306,53.1687421 22.2075018,53.1687421 C22.907373,53.1687421 23.4747307,52.6190975 23.4747307,51.9410766 C23.4747307,51.744636 23.2619848,51.6051094 22.9597691,51.5224969 Z" id="Oval-3" fill="#DCDCDC"></path>
                    <path d="M142.072227,49.3801481 C140.928958,49.3801481 140.002738,48.4029221 140.002738,47.1968906 C140.002738,45.9908591 140.928958,45.0136331 142.072227,45.0136331 C143.215497,45.0136331 144.142134,45.9908591 144.142134,47.1968906 C144.142134,48.4029221 143.215497,49.3801481 142.072227,49.3801481 L142.072227,49.3801481 Z M147.919223,48.7408903 L146.949593,48.1505375 C147.003856,47.8405149 147.039752,47.5239426 147.039752,47.1968906 C147.039752,46.8702753 147.003856,46.5532663 146.949593,46.2432437 L147.919223,45.6528909 C148.315339,45.4118592 148.450578,44.8773978 148.221841,44.459959 L147.394128,42.9473982 C147.165808,42.5299593 146.65908,42.386301 146.263381,42.6277692 L145.283734,43.2237986 C144.826259,42.8133461 144.306173,42.4775611 143.728069,42.2614186 L143.728069,41.520421 C143.728069,41.0383578 143.357414,40.647118 142.899939,40.647118 L141.244515,40.647118 C140.78704,40.647118 140.416385,41.0383578 140.416385,41.520421 L140.416385,42.2614186 C139.838281,42.4775611 139.318195,42.8133461 138.860721,43.2237986 L137.881073,42.6277692 C137.485374,42.386301 136.978646,42.5299593 136.750326,42.9473982 L135.922614,44.459959 C135.693876,44.8773978 135.829533,45.4118592 136.225232,45.6528909 L137.194861,46.2432437 C137.140599,46.5532663 137.104702,46.8702753 137.104702,47.1968906 C137.104702,47.5239426 137.140599,47.8405149 137.194861,48.1505375 L136.225232,48.7408903 C135.829533,48.9819219 135.693876,49.5163834 135.922614,49.9338222 L136.750326,51.446383 C136.978646,51.8638219 137.485374,52.0074802 137.881073,51.7660119 L138.860721,51.1699826 C139.318195,51.5804351 139.838281,51.9166567 140.416385,52.1323626 L140.416385,52.8733602 C140.416385,53.3554234 140.78704,53.7466632 141.244515,53.7466632 L142.899939,53.7466632 C143.357414,53.7466632 143.728069,53.3554234 143.728069,52.8733602 L143.728069,52.1323626 C144.306173,51.9166567 144.826259,51.5804351 145.283734,51.1699826 L146.263381,51.7660119 C146.65908,52.0074802 147.165808,51.8638219 147.394128,51.446383 L148.221841,49.9338222 C148.450578,49.5163834 148.315339,48.9819219 147.919223,48.7408903 L147.919223,48.7408903 Z M142.072227,45.8869361 C141.386432,45.8869361 140.83045,46.4737957 140.83045,47.1968906 C140.83045,47.9204221 141.386432,48.5068451 142.072227,48.5068451 C142.758022,48.5068451 143.314004,47.9204221 143.314004,47.1968906 C143.314004,46.4737957 142.758022,45.8869361 142.072227,45.8869361 L142.072227,45.8869361 Z" id="Fill-171" fill="#DCDCDC"></path>
                </g>
                <g id="Long-Curve" transform="translate(139.471628, 111.827735)">
                    <path d="M80.72384,3.1785661 L22.2815678,3.1785661 C22.2815678,3.1785661 13.2105391,3.1785661 8.34486477,8.24064332 C3.47919043,13.3027205 3.08224592,22.0321135 3.08224592,22.0321135 L3.08224592,46.1373686 L3.08224592,136.895305" id="Line" stroke="#DCDCDC" stroke-width="2" stroke-linecap="square"></path>
                    <path d="M80.5236746,6.26081202 C78.8207337,6.26081202 77.4414287,4.87958057 77.4414287,3.1785661 C77.4414287,1.47562523 78.8207337,0.0963201849 80.5236746,0.0963201849 C82.2266154,0.0963201849 83.6059205,1.47562523 83.6059205,3.1785661 C83.6059205,4.87958057 82.2266154,6.26081202 80.5236746,6.26081202 Z" id="Fill-561" fill="#DCDCDC"></path>
                    <path d="M3.08224592,139.977551 C1.37930505,139.977551 0,138.596319 0,136.895305 C0,135.192364 1.37930505,133.813059 3.08224592,133.813059 C4.78518679,133.813059 6.16449183,135.192364 6.16449183,136.895305 C6.16449183,138.596319 4.78518679,139.977551 3.08224592,139.977551 Z" id="Fill-561" fill="#DCDCDC"></path>
                </g>
                <g id="Long-Curve" transform="translate(331.724606, 190.536756) scale(-1, 1) rotate(90.000000) translate(-331.724606, -190.536756) translate(306.093458, 120.159707)">
                    <path d="M44.6925658,3.1785661 L22.2815678,3.1785661 C22.2815678,3.1785661 13.2105391,3.1785661 8.34486477,8.24064332 C3.47919043,13.3027205 3.08224592,22.0321135 3.08224592,22.0321135 L3.08224592,46.1373686 L3.08224592,136.895305" id="Line" stroke="#DCDCDC" stroke-width="2" stroke-linecap="square"></path>
                    <path d="M48.1600924,6.26081202 C46.4571516,6.26081202 45.0778465,4.87958057 45.0778465,3.1785661 C45.0778465,1.47562523 46.4571516,0.0963201849 48.1600924,0.0963201849 C49.8630333,0.0963201849 51.2423384,1.47562523 51.2423384,3.1785661 C51.2423384,4.87958057 49.8630333,6.26081202 48.1600924,6.26081202 Z" id="Fill-561" fill="#DCDCDC"></path>
                    <path d="M3.08224592,139.977551 C1.37930505,139.977551 0,138.596319 0,136.895305 C0,135.192364 1.37930505,133.813059 3.08224592,133.813059 C4.78518679,133.813059 6.16449183,135.192364 6.16449183,136.895305 C6.16449183,138.596319 4.78518679,139.977551 3.08224592,139.977551 Z" id="Fill-561" fill="#DCDCDC"></path>
                </g>
            </g>
        </g>
    </g>
</svg>