<?xml version="1.0" encoding="UTF-8"?>
<svg width="1440px" height="600px" viewBox="0 0 1440 600" version="1.1" xmlns="http://www.w3.org/2000/svg" xmlns:xlink="http://www.w3.org/1999/xlink">
    <!-- Generator: Sketch 42 (36781) - http://www.bohemiancoding.com/sketch -->
    <title>services-web-development</title>
    <desc>Created with Sketch.</desc>
    <defs>
        <rect id="path-1" x="0" y="0" width="214.285714" height="50" rx="2"></rect>
        <mask id="mask-2" maskContentUnits="userSpaceOnUse" maskUnits="objectBoundingBox" x="0" y="0" width="214.285714" height="50" fill="white">
            <use xlink:href="#path-1"></use>
        </mask>
        <path d="M33.2317917,66.4635835 C14.87838,66.4635835 0,51.5852035 0,33.2317917 C0,14.87838 14.87838,0 33.2317917,0 C51.5852035,0 66.4635835,14.87838 66.4635835,33.2317917 C66.4635835,51.5852035 51.5852035,66.4635835 33.2317917,66.4635835 Z M33.2317917,61.7161847 C48.9632876,61.7161847 61.7161847,48.9632876 61.7161847,33.2317917 C61.7161847,17.5002959 48.9632876,4.74739882 33.2317917,4.74739882 C17.5002959,4.74739882 4.74739882,17.5002959 4.74739882,33.2317917 C4.74739882,48.9632876 17.5002959,61.7161847 33.2317917,61.7161847 Z" id="path-3"></path>
    </defs>
    <g id="Page-1" stroke="none" stroke-width="1" fill="none" fill-rule="evenodd">
        <g id="services-web-development">
            <g id="Group" transform="translate(900.000000, 61.000000)">
                <g id="Social">
                    <g id="holder">
                        <rect id="bg" fill="#4D8FFF" x="0" y="0" width="250" height="229" rx="3"></rect>
                        <path d="M8.92857143,13.1197917 C7.28486682,13.1197917 5.95238095,11.7848074 5.95238095,10.1380208 C5.95238095,8.49123427 7.28486682,7.15625 8.92857143,7.15625 C10.572276,7.15625 11.9047619,8.49123427 11.9047619,10.1380208 C11.9047619,11.7848074 10.572276,13.1197917 8.92857143,13.1197917 Z M20.8333333,13.1197917 C19.1896287,13.1197917 17.8571429,11.7848074 17.8571429,10.1380208 C17.8571429,8.49123427 19.1896287,7.15625 20.8333333,7.15625 C22.4770379,7.15625 23.8095238,8.49123427 23.8095238,10.1380208 C23.8095238,11.7848074 22.4770379,13.1197917 20.8333333,13.1197917 Z M32.7380952,13.1197917 C31.0943906,13.1197917 29.7619048,11.7848074 29.7619048,10.1380208 C29.7619048,8.49123427 31.0943906,7.15625 32.7380952,7.15625 C34.3817999,7.15625 35.7142857,8.49123427 35.7142857,10.1380208 C35.7142857,11.7848074 34.3817999,13.1197917 32.7380952,13.1197917 Z" id="dots" fill="#FFFFFF" opacity="0.4"></path>
                    </g>
                    <rect id="bg" fill="#FFFFFF" x="5.95238095" y="20.2380952" width="238.095238" height="202.380952"></rect>
                    <g id="comment_2" transform="translate(17.857143, 158.333333)" fill="#4D8FFF">
                        <g id="text" transform="translate(64.285714, 11.904762)">
                            <rect id="Rectangle-473" x="0" y="0" width="77.3809524" height="4.76190476"></rect>
                            <rect id="Rectangle-473-Copy" opacity="0.5" x="0" y="11.9047619" width="148.809524" height="4.76190476"></rect>
                            <rect id="Rectangle-473-Copy-12" opacity="0.5" x="0" y="23.8095238" width="130.952381" height="4.76190476"></rect>
                        </g>
                        <rect id="Rectangle-471" opacity="0.2" x="0" y="0" width="52.3809524" height="52.3809524" rx="2"></rect>
                        <path d="M32.7380952,20.5357143 C32.7380952,24.077381 30.0297619,26.7857143 26.4880952,26.7857143 C22.9464286,26.7857143 20.2380952,24.077381 20.2380952,20.5357143 C20.2380952,16.9940476 22.9464286,14.2857143 26.4880952,14.2857143 C30.0297619,14.2857143 32.7380952,16.9940476 32.7380952,20.5357143 L32.7380952,20.5357143 Z M13.6904762,36.5127758 C13.6904762,32.1573751 22.0238095,29.7619048 26.1904762,29.7619048 C30.3571429,29.7619048 38.6904762,32.1573751 38.6904762,36.5127758 L38.6904762,38.6904762 L13.6904762,38.6904762 L13.6904762,36.5127758 L13.6904762,36.5127758 Z" id="user" opacity="0.8"></path>
                    </g>
                    <g id="comment_1" transform="translate(17.857143, 94.047619)" fill="#4D8FFF">
                        <g id="text" transform="translate(64.285714, 10.119048)">
                            <rect id="Rectangle-473" x="0" y="0" width="53.5714286" height="4.76190476"></rect>
                            <rect id="Rectangle-473-Copy-15" x="59.5238095" y="0" width="17.8571429" height="4.76190476"></rect>
                            <rect id="Rectangle-473-Copy" opacity="0.5" x="0" y="11.9047619" width="148.809524" height="4.76190476"></rect>
                            <rect id="Rectangle-473-Copy-12" opacity="0.5" x="0" y="23.8095238" width="148.809524" height="4.76190476"></rect>
                        </g>
                        <rect id="Rectangle-471" opacity="0.2" x="2.84217094e-14" y="0" width="52.3809524" height="52.3809524" rx="2"></rect>
                        <path d="M32.7380952,20.5357143 C32.7380952,24.077381 30.0297619,26.7857143 26.4880952,26.7857143 C22.9464286,26.7857143 20.2380952,24.077381 20.2380952,20.5357143 C20.2380952,16.9940476 22.9464286,14.2857143 26.4880952,14.2857143 C30.0297619,14.2857143 32.7380952,16.9940476 32.7380952,20.5357143 L32.7380952,20.5357143 Z M13.6904762,36.5127758 C13.6904762,32.1573751 22.0238095,29.7619048 26.1904762,29.7619048 C30.3571429,29.7619048 38.6904762,32.1573751 38.6904762,36.5127758 L38.6904762,38.6904762 L13.6904762,38.6904762 L13.6904762,36.5127758 L13.6904762,36.5127758 Z" id="user" opacity="0.8"></path>
                    </g>
                    <g id="comment" transform="translate(17.857143, 32.142857)">
                        <use id="Rectangle-471-Copy-8" stroke="#4D8FFF" mask="url(#mask-2)" stroke-width="8" fill="#FFFFFF" opacity="0.800000012" xlink:href="#path-1"></use>
                        <rect id="btn-copy-3" fill="#4D8FFF" x="152.380952" y="26.1904762" width="48.8095238" height="11.9047619" rx="5.95238095"></rect>
                    </g>
                </g>
                <g id="Graphs" transform="translate(280.000000, 259.000000)">
                    <g id="holder">
                        <rect id="bg" fill="#4D8FFF" x="0" y="0" width="249" height="228" rx="3"></rect>
                        <path d="M8.89285714,13.0625 C7.25572735,13.0625 5.92857143,11.7333454 5.92857143,10.09375 C5.92857143,8.45415465 7.25572735,7.125 8.89285714,7.125 C10.5299869,7.125 11.8571429,8.45415465 11.8571429,10.09375 C11.8571429,11.7333454 10.5299869,13.0625 8.89285714,13.0625 Z M20.75,13.0625 C19.1128702,13.0625 17.7857143,11.7333454 17.7857143,10.09375 C17.7857143,8.45415465 19.1128702,7.125 20.75,7.125 C22.3871298,7.125 23.7142857,8.45415465 23.7142857,10.09375 C23.7142857,11.7333454 22.3871298,13.0625 20.75,13.0625 Z M32.6071429,13.0625 C30.9700131,13.0625 29.6428571,11.7333454 29.6428571,10.09375 C29.6428571,8.45415465 30.9700131,7.125 32.6071429,7.125 C34.2442727,7.125 35.5714286,8.45415465 35.5714286,10.09375 C35.5714286,11.7333454 34.2442727,13.0625 32.6071429,13.0625 Z" id="dots" fill="#FFFFFF" opacity="0.4"></path>
                    </g>
                    <g id="graph_2" transform="translate(5.934249, 124.025794)">
                        <rect id="bg" fill="#FFFFFF" x="0" y="0" width="237.369941" height="97.9151007"></rect>
                        <g id="text" transform="translate(112.750722, 29.077818)" fill="#4D8FFF">
                            <rect id="Rectangle-473" x="0" y="0" width="77.1452308" height="4.74739882"></rect>
                            <rect id="Rectangle-473-Copy" opacity="0.5" x="0" y="11.8684971" width="106.816473" height="4.74739882"></rect>
                            <rect id="Rectangle-473-Copy-12" opacity="0.5" x="0" y="23.7369941" width="106.816473" height="4.74739882"></rect>
                            <rect id="Rectangle-473-Copy-14" opacity="0.5" x="0" y="35.6054912" width="53.4082367" height="4.74739882"></rect>
                        </g>
                        <g id="Rectangle-1088" transform="translate(23.736994, 16.022471)">
                            <mask id="mask-4" fill="white">
                                <use xlink:href="#path-3"></use>
                            </mask>
                            <use id="Mask" fill-opacity="0.5" fill="#4D8FFF" xlink:href="#path-3"></use>
                            <rect fill="#4D8FFF" mask="url(#mask-4)" x="33.2317917" y="33.2317917" width="33.2317917" height="33.2317917"></rect>
                        </g>
                    </g>
                    <g id="graph_1" transform="translate(5.934249, 20.176445)">
                        <rect id="bg-copy-6" fill="#FFFFFF" x="0" y="0" width="237.369941" height="97.9151007"></rect>
                        <path d="M13.6487716,63.0523097 C25.5445021,63.0523097 24.8759785,37.1451561 41.4729934,37.1451555 C58.0700083,37.1451548 55.7912703,57.7857405 68.0285808,57.7857382 C80.2658913,57.7857359 76.334651,75.3649563 89.3563727,75.3649563 C102.378094,75.3649563 98.814705,54.5163204 113.063756,54.5163204 C127.312808,54.5163204 123.59854,31.6686675 136.669805,31.6686675 C149.74107,31.6686675 144.880579,52.4775311 156.072898,52.4775313 C167.265217,52.4775314 166.033419,67.2638221 178.013217,67.2638221 C189.993016,67.2638221 189.86177,46.6658588 203.991414,46.6658589 C218.121058,46.665859 223.142973,23.1435693 223.142973,23.1435693" id="Path-213" stroke="#4D8FFF" stroke-width="7" opacity="0.8"></path>
                    </g>
                </g>
                <g id="Payment" transform="translate(280.000000, 1.000000)">
                    <g id="holder">
                        <rect id="bg" fill="#4D8FFF" x="0" y="0" width="249" height="228" rx="3"></rect>
                        <path d="M8.89285714,13.0625 C7.25572735,13.0625 5.92857143,11.7333454 5.92857143,10.09375 C5.92857143,8.45415465 7.25572735,7.125 8.89285714,7.125 C10.5299869,7.125 11.8571429,8.45415465 11.8571429,10.09375 C11.8571429,11.7333454 10.5299869,13.0625 8.89285714,13.0625 Z M20.75,13.0625 C19.1128702,13.0625 17.7857143,11.7333454 17.7857143,10.09375 C17.7857143,8.45415465 19.1128702,7.125 20.75,7.125 C22.3871298,7.125 23.7142857,8.45415465 23.7142857,10.09375 C23.7142857,11.7333454 22.3871298,13.0625 20.75,13.0625 Z M32.6071429,13.0625 C30.9700131,13.0625 29.6428571,11.7333454 29.6428571,10.09375 C29.6428571,8.45415465 30.9700131,7.125 32.6071429,7.125 C34.2442727,7.125 35.5714286,8.45415465 35.5714286,10.09375 C35.5714286,11.7333454 34.2442727,13.0625 32.6071429,13.0625 Z" id="dots" fill="#FFFFFF" opacity="0.4"></path>
                    </g>
                    <rect id="bg" fill="#FFFFFF" x="5.93424853" y="20.176445" width="237.369941" height="201.76445"></rect>
                    <rect id="btn" fill="#4D8FFF" x="100.2888" y="197.017051" width="48.6608379" height="11.8684971" rx="5.93424853"></rect>
                    <g id="product_2" transform="translate(17.802746, 128.179768)" fill="#4D8FFF">
                        <rect id="Rectangle-471" opacity="0.2" x="0" y="0" width="213.632947" height="52.221387" rx="2"></rect>
                        <g id="Group-31" transform="translate(54.001662, 17.802746)">
                            <rect id="Rectangle-473-Copy" x="0" y="0" width="142.421965" height="4.74739882"></rect>
                            <rect id="Rectangle-473-Copy-12" opacity="0.5" x="0" y="11.8684971" width="83.0794794" height="4.74739882"></rect>
                        </g>
                        <path d="M31.7727128,17.8343877 C31.7920924,17.7233951 31.807502,17.6096727 31.807502,17.492954 L31.807502,15.4500777 C31.807502,14.358595 30.909644,13.4709871 29.8064825,13.4709871 L23.6016869,13.4709871 C22.4985927,13.4709871 21.6015422,14.358595 21.6015422,15.4500777 L21.6015422,17.492954 C21.6015422,17.6097392 21.616077,17.7234617 21.6362642,17.8343877 L15.4290462,17.8343877 L15.4290462,36.7705104 C15.4290462,37.8620597 16.3269042,38.7503999 17.4299984,38.7503999 L35.9790459,38.7503999 C37.0822074,38.7503999 37.9791906,37.8619931 37.9791906,36.7705104 L37.9791906,17.8343877 L31.7727128,17.8343877 L31.7727128,17.8343877 Z M23.2566209,17.4928874 L23.2566209,15.4500777 C23.2566209,15.2621826 23.411793,15.1086439 23.6016869,15.1086439 L29.8064825,15.1086439 C29.997184,15.1086439 30.1524233,15.2621826 30.1524233,15.4500777 L30.1524233,17.492954 C30.1524233,17.6808491 29.997184,17.8343877 29.8064825,17.8343877 L23.6016869,17.8343877 C23.411793,17.8343877 23.2566209,17.6808491 23.2566209,17.4928874 L23.2566209,17.4928874 Z" id="Shape-Copy-9" opacity="0.8"></path>
                    </g>
                    <g id="product_1" transform="translate(17.802746, 65.276734)" fill="#4D8FFF">
                        <rect id="Rectangle-471" opacity="0.2" x="0" y="0" width="213.632947" height="52.221387" rx="2"></rect>
                        <g id="Group-31" transform="translate(54.001662, 17.802746)">
                            <rect id="Rectangle-473-Copy" x="0" y="0" width="142.421965" height="4.74739882"></rect>
                            <rect id="Rectangle-473-Copy-12" opacity="0.5" x="0" y="11.8684971" width="83.0794794" height="4.74739882"></rect>
                        </g>
                        <path d="M31.7727128,18.0121722 C31.7920924,17.9011796 31.807502,17.7874572 31.807502,17.6707385 L31.807502,15.6278622 C31.807502,14.5363795 30.909644,13.6487716 29.8064825,13.6487716 L23.6016869,13.6487716 C22.4985927,13.6487716 21.6015422,14.5363795 21.6015422,15.6278622 L21.6015422,17.6707385 C21.6015422,17.7875237 21.616077,17.9012462 21.6362642,18.0121722 L15.4290462,18.0121722 L15.4290462,36.9482949 C15.4290462,38.0398442 16.3269042,38.9281844 17.4299984,38.9281844 L35.9790459,38.9281844 C37.0822074,38.9281844 37.9791906,38.0397776 37.9791906,36.9482949 L37.9791906,18.0121722 L31.7727128,18.0121722 L31.7727128,18.0121722 Z M23.2566209,17.6706719 L23.2566209,15.6278622 C23.2566209,15.4399671 23.411793,15.2864284 23.6016869,15.2864284 L29.8064825,15.2864284 C29.997184,15.2864284 30.1524233,15.4399671 30.1524233,15.6278622 L30.1524233,17.6707385 C30.1524233,17.8586336 29.997184,18.0121722 29.8064825,18.0121722 L23.6016869,18.0121722 C23.411793,18.0121722 23.2566209,17.8586336 23.2566209,17.6706719 L23.2566209,17.6706719 Z" id="Shape" opacity="0.8"></path>
                    </g>
                    <g id="progress-bar" transform="translate(33.231792, 33.231792)" fill="#4D8FFF">
                        <rect id="Rectangle-1345" opacity="0.6" x="0" y="0" width="18.9895953" height="18.9895953" rx="9.49479764"></rect>
                        <rect id="Rectangle-1345-Copy" x="81.8926297" y="0" width="18.9895953" height="18.9895953" rx="9.49479764"></rect>
                        <rect id="Rectangle-1345-Copy-2" opacity="0.6" x="163.785259" y="0" width="18.9895953" height="18.9895953" rx="9.49479764"></rect>
                        <rect id="Rectangle-1348" fill-opacity="0.600000024" x="18.9895953" y="8.30794794" width="62.9030344" height="2.37369941"></rect>
                        <rect id="Rectangle-1348-Copy" fill-opacity="0.600000024" x="100.882225" y="8.30794794" width="62.9030344" height="2.37369941"></rect>
                    </g>
                </g>
            </g>
        </g>
    </g>
</svg>