<?xml version="1.0" encoding="UTF-8"?>
<svg width="1440px" height="600px" viewBox="0 0 1440 600" version="1.1" xmlns="http://www.w3.org/2000/svg" xmlns:xlink="http://www.w3.org/1999/xlink">
    <!-- Generator: Sketch 42 (36781) - http://www.bohemiancoding.com/sketch -->
    <title>services-innovation-consulting</title>
    <desc>Created with Sketch.</desc>
    <defs></defs>
    <g id="Services" stroke="none" stroke-width="1" fill="none" fill-rule="evenodd">
        <g id="services-innovation-consulting">
            <g id="Graph" transform="translate(18.000000, 400.000000)">
                <path id="Path-345" stroke="#979797"></path>
                <polyline id="Path-346" stroke="#4D8FFF" stroke-width="2" stroke-linecap="round" stroke-linejoin="round" opacity="0.5" points="6.48717949 162.333333 54.5641026 111.692308 100.717949 162.974359 147.512821 147.589744 193.025641 116.179487 243.666667 7.84615385 284.051282 46.3076923 327.641026 61.0512821 376.358974 55.2820513 423.794872 75.1538462 469.948718 100.153846 520.589744 83.4871795 564.179487 61.0512821 614.054287 38.775641 660.458534 94.5448718 705.866186 104.570913 753.071715 70.9671474 798.92508 83.1165865 846.345954 40.1628606 892.589944 25.8449519 937.001002 38.2598157 984.527043 29.7311699 1031.55729 51.671274 1079.08333 105.216947 1125.77304 135.575521 1171.25581 34.9645433 1216.38301 81.0482772 1262.34155 55.3521635 1309.08634 99.7481971 1350.91326 111.607171 1397.03706 84.9695513"></polyline>
                <g id="Points" stroke="#FFFFFF" stroke-width="3" fill="#4D8FFF">
                    <ellipse id="Oval-19" cx="7" cy="162.128205" rx="7" ry="7"></ellipse>
                    <ellipse id="Oval-19" cx="55.7179487" cy="112.128205" rx="7" ry="7"></ellipse>
                    <circle id="Oval-19" cx="101.871795" cy="160.846154" r="7"></circle>
                    <ellipse id="Oval-19" cx="148.025641" cy="146.74359" rx="7" ry="7"></ellipse>
                    <ellipse id="Oval-19" cx="194.179487" cy="115.974359" rx="7" ry="7"></ellipse>
                    <ellipse id="Oval-19" cx="244.179487" cy="7" rx="7" ry="7"></ellipse>
                    <ellipse id="Oval-19" cx="286.487179" cy="45.4615385" rx="7" ry="7"></ellipse>
                    <circle id="Oval-19" cx="330.076923" cy="59.5641026" r="7"></circle>
                    <ellipse id="Oval-19" cx="377.512821" cy="54.4358974" rx="7" ry="7"></ellipse>
                    <ellipse id="Oval-19" cx="424.948718" cy="73.6666667" rx="7" ry="7"></ellipse>
                    <ellipse id="Oval-19" cx="472.384615" cy="99.3076923" rx="7" ry="7"></ellipse>
                    <ellipse id="Oval-19" cx="522.384615" cy="82.6410256" rx="7" ry="7"></ellipse>
                    <ellipse id="Oval-19" cx="564.692308" cy="60.8461538" rx="7" ry="7"></ellipse>
                    <ellipse id="Oval-19" cx="614.692308" cy="39.0512821" rx="7" ry="7"></ellipse>
                    <ellipse id="Oval-19" cx="660.846154" cy="91.6153846" rx="7" ry="7"></ellipse>
                    <ellipse id="Oval-19" cx="707" cy="101.871795" rx="7" ry="7"></ellipse>
                    <ellipse id="Oval-19" cx="755.717949" cy="72.3846154" rx="7" ry="7"></ellipse>
                    <ellipse id="Oval-19" cx="799.307692" cy="82.6410256" rx="7" ry="7"></ellipse>
                    <ellipse id="Oval-19" cx="848.025641" cy="40.3333333" rx="7" ry="7"></ellipse>
                    <ellipse id="Oval-19" cx="892.897436" cy="26.2307692" rx="7" ry="7"></ellipse>
                    <ellipse id="Oval-19" cx="939.051282" cy="36.4871795" rx="7" ry="7"></ellipse>
                    <ellipse id="Oval-19" cx="983.923077" cy="30.0769231" rx="7" ry="7"></ellipse>
                    <ellipse id="Oval-19" cx="1033.92308" cy="51.8717949" rx="7" ry="7"></ellipse>
                    <ellipse id="Oval-19" cx="1080.07692" cy="103.153846" rx="7" ry="7"></ellipse>
                    <ellipse id="Oval-19" cx="1126.23077" cy="132.641026" rx="7" ry="7"></ellipse>
                    <ellipse id="Oval-19" cx="1173.66667" cy="35.2051282" rx="7" ry="7"></ellipse>
                    <ellipse id="Oval-19" cx="1217.25641" cy="78.7948718" rx="7" ry="7"></ellipse>
                    <ellipse id="Oval-19" cx="1263.41026" cy="55.7179487" rx="7" ry="7"></ellipse>
                    <ellipse id="Oval-19" cx="1309.5641" cy="96.7435897" rx="7" ry="7"></ellipse>
                    <ellipse id="Oval-19" cx="1351.87179" cy="109.564103" rx="7" ry="7"></ellipse>
                    <ellipse id="Oval-19" cx="1399.30769" cy="82.6410256" rx="7" ry="7"></ellipse>
                </g>
            </g>
            <g id="Design-Sprint" transform="translate(1087.000000, 52.000000)">
                <path d="M141,220 C190.705627,220 231,179.705627 231,130 C231,80.2943725 190.705627,40 141,40 C91.2943725,40 51,80.2943725 51,130" id="Oval" stroke="#EBEBEB" stroke-width="3"></path>
                <path d="M51,130 C51,179.705627 91.2943725,220 141,220 L141,220" id="Oval" stroke="#4D8FFF" stroke-width="3"></path>
                <path d="M69.6210938,126.042969 C69.6210938,126.042969 132.019531,120.128906 143.707031,200.773437" id="Path-2" stroke="#4D8FFF" stroke-width="3"></path>
                <g id="Step-1" transform="translate(38.000000, 117.000000)">
                    <circle id="Oval-2" fill="#4D8FFF" cx="13" cy="13" r="13"></circle>
                    <text id="1" font-family="GTWalsheimProTrial-Light, GT Walsheim Pro Trial" font-size="12" font-weight="300" fill="#FFFFFF">
                        <tspan x="11" y="18">1</tspan>
                    </text>
                </g>
                <g id="Step-2" transform="translate(128.000000, 27.000000)">
                    <circle id="Oval-2-Copy-3" fill="#4D8FFF" cx="13" cy="13" r="13"></circle>
                    <text id="2" font-family="GTWalsheimProTrial-Light, GT Walsheim Pro Trial" font-size="12" font-weight="300" fill="#FFFFFF">
                        <tspan x="10" y="18">2</tspan>
                    </text>
                </g>
                <g id="Step-3" transform="translate(218.000000, 117.000000)">
                    <circle id="Oval-2-Copy" fill="#4D8FFF" cx="13" cy="13" r="13"></circle>
                    <text id="3" font-family="GTWalsheimProTrial-Light, GT Walsheim Pro Trial" font-size="12" font-weight="300" fill="#FFFFFF">
                        <tspan x="10" y="18">3</tspan>
                    </text>
                </g>
                <g id="Step-4" transform="translate(128.000000, 207.000000)">
                    <circle id="Oval-2-Copy-2" fill="#4D8FFF" cx="13" cy="13" r="13"></circle>
                    <text id="4" font-family="GTWalsheimProTrial-Light, GT Walsheim Pro Trial" font-size="12" font-weight="300" fill="#FFFFFF">
                        <tspan x="10" y="18">4</tspan>
                    </text>
                </g>
                <text id="Learn" font-family="ProximaNova-Regular, Proxima Nova" font-size="14" font-weight="normal" fill="#333333">
                    <tspan x="126" y="257">Learn</tspan>
                </text>
                <text id="Build" font-family="ProximaNova-Regular, Proxima Nova" font-size="14" font-weight="normal" fill="#333333">
                    <tspan x="125" y="14">Build</tspan>
                </text>
                <text id="Launch" font-family="ProximaNova-Regular, Proxima Nova" font-size="14" font-weight="normal" fill="#333333">
                    <tspan x="254" y="134">Launch</tspan>
                </text>
                <text id="Idea" font-family="ProximaNova-Regular, Proxima Nova" font-size="14" font-weight="normal" fill="#333333">
                    <tspan x="0" y="134">Idea</tspan>
                </text>
            </g>
        </g>
    </g>
</svg>