<?xml version="1.0" encoding="UTF-8"?>
<svg width="1440px" height="600px" viewBox="0 0 1440 600" version="1.1" xmlns="http://www.w3.org/2000/svg" xmlns:xlink="http://www.w3.org/1999/xlink">
    <!-- Generator: Sketch 42 (36781) - http://www.bohemiancoding.com/sketch -->
    <title>services-innovation-consulting</title>
    <desc>Created with Sketch.</desc>
    <defs></defs>
    <g id="Services" stroke="none" stroke-width="1" fill="none" fill-rule="evenodd">
        <g id="services-innovation-consulting">
            <g id="Graph" transform="translate(18.000000, 400.000000)">
                <path id="Path-345" stroke="#979797"></path>
                <polyline id="Path-346" stroke="#4D8FFF" stroke-width="2" stroke-linecap="round" stroke-linejoin="round" opacity="0.5" points="6.48717949 162.333333 54.5641026 111.692308 100.717949 162.974359 147.512821 147.589744 193.025641 116.179487 243.666667 7.84615385 284.051282 46.3076923 327.641026 61.0512821 376.358974 55.2820513 423.794872 75.1538462 469.948718 100.153846 520.589744 83.4871795 564.179487 61.0512821 614.054287 38.775641 660.458534 94.5448718 705.866186 104.570913 753.071715 70.9671474 798.92508 83.1165865 846.345954 40.1628606 892.589944 25.8449519 937.001002 38.2598157 984.527043 29.7311699 1031.55729 51.671274 1079.08333 105.216947 1125.77304 135.575521 1171.25581 34.9645433 1216.38301 81.0482772 1262.34155 55.3521635 1309.08634 99.7481971 1350.91326 111.607171 1397.03706 84.9695513"></polyline>
                <g id="Points" stroke="#FFFFFF" stroke-width="3" fill="#4D8FFF">
                    <ellipse id="Oval-19" cx="7" cy="162.128205" rx="7" ry="7"></ellipse>
                    <ellipse id="Oval-19" cx="55.7179487" cy="112.128205" rx="7" ry="7"></ellipse>
                    <circle id="Oval-19" cx="101.871795" cy="160.846154" r="7"></circle>
                    <ellipse id="Oval-19" cx="148.025641" cy="146.74359" rx="7" ry="7"></ellipse>
                    <ellipse id="Oval-19" cx="194.179487" cy="115.974359" rx="7" ry="7"></ellipse>
                    <ellipse id="Oval-19" cx="244.179487" cy="7" rx="7" ry="7"></ellipse>
                    <ellipse id="Oval-19" cx="286.487179" cy="45.4615385" rx="7" ry="7"></ellipse>
                    <circle id="Oval-19" cx="330.076923" cy="59.5641026" r="7"></circle>
                    <ellipse id="Oval-19" cx="377.512821" cy="54.4358974" rx="7" ry="7"></ellipse>
                    <ellipse id="Oval-19" cx="424.948718" cy="73.6666667" rx="7" ry="7"></ellipse>
                    <ellipse id="Oval-19" cx="472.384615" cy="99.3076923" rx="7" ry="7"></ellipse>
                    <ellipse id="Oval-19" cx="522.384615" cy="82.6410256" rx="7" ry="7"></ellipse>
                    <ellipse id="Oval-19" cx="564.692308" cy="60.8461538" rx="7" ry="7"></ellipse>
                    <ellipse id="Oval-19" cx="614.692308" cy="39.0512821" rx="7" ry="7"></ellipse>
                    <ellipse id="Oval-19" cx="660.846154" cy="91.6153846" rx="7" ry="7"></ellipse>
                    <ellipse id="Oval-19" cx="707" cy="101.871795" rx="7" ry="7"></ellipse>
                    <ellipse id="Oval-19" cx="755.717949" cy="72.3846154" rx="7" ry="7"></ellipse>
                    <ellipse id="Oval-19" cx="799.307692" cy="82.6410256" rx="7" ry="7"></ellipse>
                    <ellipse id="Oval-19" cx="848.025641" cy="40.3333333" rx="7" ry="7"></ellipse>
                    <ellipse id="Oval-19" cx="892.897436" cy="26.2307692" rx="7" ry="7"></ellipse>
                    <ellipse id="Oval-19" cx="939.051282" cy="36.4871795" rx="7" ry="7"></ellipse>
                    <ellipse id="Oval-19" cx="983.923077" cy="30.0769231" rx="7" ry="7"></ellipse>
                    <ellipse id="Oval-19" cx="1033.92308" cy="51.8717949" rx="7" ry="7"></ellipse>
                    <ellipse id="Oval-19" cx="1080.07692" cy="103.153846" rx="7" ry="7"></ellipse>
                    <ellipse id="Oval-19" cx="1126.23077" cy="132.641026" rx="7" ry="7"></ellipse>
                    <ellipse id="Oval-19" cx="1173.66667" cy="35.2051282" rx="7" ry="7"></ellipse>
                    <ellipse id="Oval-19" cx="1217.25641" cy="78.7948718" rx="7" ry="7"></ellipse>
                    <ellipse id="Oval-19" cx="1263.41026" cy="55.7179487" rx="7" ry="7"></ellipse>
                    <ellipse id="Oval-19" cx="1309.5641" cy="96.7435897" rx="7" ry="7"></ellipse>
                    <ellipse id="Oval-19" cx="1351.87179" cy="109.564103" rx="7" ry="7"></ellipse>
                    <ellipse id="Oval-19" cx="1399.30769" cy="82.6410256" rx="7" ry="7"></ellipse>
                </g>
            </g>
            <g id="Design-Sprint" transform="translate(1086.000000, 64.000000)">
                <path d="M142,208 C191.705627,208 232,167.705627 232,118 C232,68.2943725 191.705627,28 142,28 C92.2943725,28 52,68.2943725 52,118" id="Oval" stroke="#EBEBEB" stroke-width="3"></path>
                <path d="M52,118 C52,167.705627 92.2943725,208 142,208 L142,208" id="Oval" stroke="#EBEBEB" stroke-width="3"></path>
                <g id="Step-1" transform="translate(39.000000, 105.000000)" fill="#4D8FFF">
                    <circle id="Oval-2" cx="13" cy="13" r="13"></circle>
                </g>
                <g id="Step-2" transform="translate(160.000000, 20.000000)" fill="#4D8FFF">
                    <circle id="Oval-2-Copy-3" cx="13" cy="13" r="13"></circle>
                </g>
                <g id="Step-3" transform="translate(169.000000, 182.000000)" fill="#4D8FFF">
                    <circle id="Oval-2-Copy" cx="13" cy="13" r="13"></circle>
                </g>
                <path d="M156.142,9.338 L156.142,0 L154.476,0 L151.578,7.196 L148.666,0 L147,0 L147,9.338 L148.162,9.338 L148.162,1.484 L151.34,9.338 L151.816,9.338 L154.98,1.484 L154.98,9.338 L156.142,9.338 Z M161.35,9.506 C159.334,9.506 157.892,8.064 157.892,5.95 C157.892,3.99 159.292,2.408 161.224,2.408 C163.268,2.408 164.472,4.004 164.472,6.034 L164.472,6.3 L159.012,6.3 C159.096,7.574 159.978,8.638 161.434,8.638 C162.218,8.638 162.988,8.33 163.534,7.77 L164.038,8.456 C163.352,9.128 162.442,9.506 161.35,9.506 Z M163.436,5.516 C163.422,4.522 162.75,3.276 161.21,3.276 C159.768,3.276 159.054,4.494 158.998,5.516 L163.436,5.516 Z M171.444,9.338 L170.394,9.338 L170.394,8.568 C169.848,9.184 169.064,9.506 168.154,9.506 C167.02,9.506 165.802,8.736 165.802,7.266 C165.802,5.74 167.006,5.04 168.154,5.04 C169.078,5.04 169.848,5.334 170.394,5.95 L170.394,4.732 C170.394,3.836 169.666,3.318 168.686,3.318 C167.874,3.318 167.216,3.598 166.614,4.256 L166.124,3.528 C166.852,2.772 167.72,2.408 168.826,2.408 C170.268,2.408 171.444,3.052 171.444,4.69 L171.444,9.338 Z M168.546,8.75 C169.274,8.75 169.988,8.47 170.394,7.91 L170.394,6.622 C169.988,6.076 169.274,5.796 168.546,5.796 C167.552,5.796 166.866,6.412 166.866,7.266 C166.866,8.134 167.552,8.75 168.546,8.75 Z M175.714,9.506 C177.45,9.506 178.36,8.596 178.36,7.462 C178.36,4.83 174.174,5.796 174.174,4.326 C174.174,3.724 174.748,3.262 175.672,3.262 C176.554,3.262 177.282,3.626 177.688,4.116 L178.178,3.388 C177.646,2.842 176.834,2.408 175.672,2.408 C174.062,2.408 173.166,3.29 173.166,4.354 C173.166,6.86 177.352,5.852 177.352,7.49 C177.352,8.162 176.778,8.652 175.742,8.652 C174.818,8.652 173.964,8.204 173.516,7.686 L172.984,8.442 C173.67,9.156 174.594,9.506 175.714,9.506 Z M185.682,9.338 L185.682,2.576 L184.632,2.576 L184.632,7.546 C184.24,8.092 183.456,8.568 182.644,8.568 C181.72,8.568 181.118,8.218 181.118,7.028 L181.118,2.576 L180.068,2.576 L180.068,7.35 C180.068,8.806 180.81,9.506 182.224,9.506 C183.232,9.506 184.114,8.974 184.632,8.386 L184.632,9.338 L185.682,9.338 Z M188.832,9.338 L188.832,4.55 C189.14,4.004 190.022,3.472 190.68,3.472 C190.834,3.472 190.96,3.486 191.086,3.5 L191.086,2.422 C190.162,2.422 189.378,2.954 188.832,3.654 L188.832,2.576 L187.782,2.576 L187.782,9.338 L188.832,9.338 Z M195.468,9.506 C193.452,9.506 192.01,8.064 192.01,5.95 C192.01,3.99 193.41,2.408 195.342,2.408 C197.386,2.408 198.59,4.004 198.59,6.034 L198.59,6.3 L193.13,6.3 C193.214,7.574 194.096,8.638 195.552,8.638 C196.336,8.638 197.106,8.33 197.652,7.77 L198.156,8.456 C197.47,9.128 196.56,9.506 195.468,9.506 Z M197.554,5.516 C197.54,4.522 196.868,3.276 195.328,3.276 C193.886,3.276 193.172,4.494 193.116,5.516 L197.554,5.516 Z" id="Measure" fill="#333333"></path>
                <path d="M175.44,228 L175.44,226.964 L171.1,226.964 L171.1,218.662 L169.938,218.662 L169.938,228 L175.44,228 Z M180.018,228.168 C178.002,228.168 176.56,226.726 176.56,224.612 C176.56,222.652 177.96,221.07 179.892,221.07 C181.936,221.07 183.14,222.666 183.14,224.696 L183.14,224.962 L177.68,224.962 C177.764,226.236 178.646,227.3 180.102,227.3 C180.886,227.3 181.656,226.992 182.202,226.432 L182.706,227.118 C182.02,227.79 181.11,228.168 180.018,228.168 Z M182.104,224.178 C182.09,223.184 181.418,221.938 179.878,221.938 C178.436,221.938 177.722,223.156 177.666,224.178 L182.104,224.178 Z M190.112,228 L189.062,228 L189.062,227.23 C188.516,227.846 187.732,228.168 186.822,228.168 C185.688,228.168 184.47,227.398 184.47,225.928 C184.47,224.402 185.674,223.702 186.822,223.702 C187.746,223.702 188.516,223.996 189.062,224.612 L189.062,223.394 C189.062,222.498 188.334,221.98 187.354,221.98 C186.542,221.98 185.884,222.26 185.282,222.918 L184.792,222.19 C185.52,221.434 186.388,221.07 187.494,221.07 C188.936,221.07 190.112,221.714 190.112,223.352 L190.112,228 Z M187.214,227.412 C187.942,227.412 188.656,227.132 189.062,226.572 L189.062,225.284 C188.656,224.738 187.942,224.458 187.214,224.458 C186.22,224.458 185.534,225.074 185.534,225.928 C185.534,226.796 186.22,227.412 187.214,227.412 Z M193.276,228 L193.276,223.212 C193.584,222.666 194.466,222.134 195.124,222.134 C195.278,222.134 195.404,222.148 195.53,222.162 L195.53,221.084 C194.606,221.084 193.822,221.616 193.276,222.316 L193.276,221.238 L192.226,221.238 L192.226,228 L193.276,228 Z M202.46,228 L202.46,223.254 C202.46,221.784 201.718,221.07 200.318,221.07 C199.296,221.07 198.372,221.644 197.896,222.218 L197.896,221.238 L196.846,221.238 L196.846,228 L197.896,228 L197.896,223.058 C198.302,222.512 199.072,222.008 199.898,222.008 C200.808,222.008 201.424,222.372 201.424,223.576 L201.424,228 L202.46,228 Z" id="Learn" fill="#333333"></path>
                <path d="M4.348,122 L0.092,122 L0.092,112.662 L4.25,112.662 C5.874,112.662 6.868,113.642 6.868,115.042 C6.868,116.218 6.084,117.002 5.23,117.184 C6.224,117.338 7.05,118.36 7.05,119.48 C7.05,120.978 6.056,122 4.348,122 Z M4.054,116.708 C5.104,116.708 5.664,116.064 5.664,115.21 C5.664,114.37 5.104,113.698 4.054,113.698 L1.254,113.698 L1.254,116.708 L4.054,116.708 Z M4.124,120.964 C5.202,120.964 5.846,120.348 5.846,119.354 C5.846,118.5 5.258,117.744 4.124,117.744 L1.254,117.744 L1.254,120.964 L4.124,120.964 Z M14.47,122 L14.47,115.238 L13.42,115.238 L13.42,120.208 C13.028,120.754 12.244,121.23 11.432,121.23 C10.508,121.23 9.906,120.88 9.906,119.69 L9.906,115.238 L8.856,115.238 L8.856,120.012 C8.856,121.468 9.598,122.168 11.012,122.168 C12.02,122.168 12.902,121.636 13.42,121.048 L13.42,122 L14.47,122 Z M17.102,114.272 C17.494,114.272 17.802,113.964 17.802,113.572 C17.802,113.18 17.494,112.858 17.102,112.858 C16.71,112.858 16.388,113.18 16.388,113.572 C16.388,113.964 16.71,114.272 17.102,114.272 Z M17.62,122 L17.62,115.238 L16.57,115.238 L16.57,122 L17.62,122 Z M20.77,122 L20.77,112.662 L19.72,112.662 L19.72,122 L20.77,122 Z M28.82,122 L27.77,122 L27.77,120.992 C27.266,121.678 26.44,122.168 25.488,122.168 C23.724,122.168 22.478,120.824 22.478,118.626 C22.478,116.456 23.724,115.07 25.488,115.07 C26.398,115.07 27.224,115.518 27.77,116.26 L27.77,112.662 L28.82,112.662 L28.82,122 Z M25.754,121.23 C26.58,121.23 27.406,120.74 27.77,120.152 L27.77,117.1 C27.406,116.512 26.58,116.008 25.754,116.008 C24.382,116.008 23.57,117.128 23.57,118.626 C23.57,120.124 24.382,121.23 25.754,121.23 Z" id="Build" fill="#333333"></path>
            </g>
            <text id="2" font-family="ProximaNova-Regular, Proxima Nova" font-size="12" font-weight="normal" fill="#FFFFFF">
                <tspan x="1256" y="101">2</tspan>
            </text>
            <text id="1" font-family="ProximaNova-Regular, Proxima Nova" font-size="12" font-weight="normal" fill="#FFFFFF">
                <tspan x="1136" y="186">1</tspan>
            </text>
            <text id="3" font-family="ProximaNova-Regular, Proxima Nova" font-size="12" font-weight="normal" fill="#FFFFFF">
                <tspan x="1265" y="263">3</tspan>
            </text>
        </g>
    </g>
</svg>